<?xml version="1.0" encoding="UTF-8" standalone="no"?>
<svg
   xmlns:dc="http://purl.org/dc/elements/1.1/"
   xmlns:cc="http://creativecommons.org/ns#"
   xmlns:rdf="http://www.w3.org/1999/02/22-rdf-syntax-ns#"
   xmlns:svg="http://www.w3.org/2000/svg"
   xmlns="http://www.w3.org/2000/svg"
   xmlns:sodipodi="http://sodipodi.sourceforge.net/DTD/sodipodi-0.dtd"
   xmlns:inkscape="http://www.inkscape.org/namespaces/inkscape"
   version="1.1"
   id="Layer_1"
   x="0px"
   y="0px"
   viewBox="0 0 98 98"
   xml:space="preserve"
   sodipodi:docname="canva-seeklogo.com.svg"
   width="98"
   height="98"
   inkscape:version="1.0.2-2 (e86c870879, 2021-01-15)"><metadata
   id="metadata15"><rdf:RDF><cc:Work
       rdf:about=""><dc:format>image/svg+xml</dc:format><dc:type
         rdf:resource="http://purl.org/dc/dcmitype/StillImage" /></cc:Work></rdf:RDF></metadata><defs
   id="defs13" /><sodipodi:namedview
   pagecolor="#ffffff"
   bordercolor="#666666"
   borderopacity="1"
   objecttolerance="10"
   gridtolerance="10"
   guidetolerance="10"
   inkscape:pageopacity="0"
   inkscape:pageshadow="2"
   inkscape:window-width="1920"
   inkscape:window-height="1017"
   id="namedview11"
   showgrid="false"
   inkscape:zoom="8.5"
   inkscape:cx="26.352941"
   inkscape:cy="62.117647"
   inkscape:window-x="-8"
   inkscape:window-y="-8"
   inkscape:window-maximized="1"
   inkscape:current-layer="g8" />
<style
   type="text/css"
   id="style2">
	.st0{fill:#20C4CB;}
	.st1{fill:#FFFFFF;}
</style>
<g
   id="g8"
   transform="translate(-1,-2)">
	<circle
   class="st0"
   cx="50"
   cy="51"
   r="49"
   id="circle4"
   style="fill:#000000;fill-opacity:1" />
	<path
   class="st1"
   d="m 62.7,59.2 c -2,2.2 -4.8,3.3 -6.1,3.3 -1.5,0 -2.3,-0.9 -2.5,-2.3 -0.1,-0.5 0,-1.1 0.1,-1.6 0.5,-3.1 1.6,-5.1 1.6,-5.6 0,-0.2 -0.1,-0.3 -0.2,-0.3 -1,0 -4.4,3.5 -4.9,5.8 l -0.4,1.9 c -0.3,1.3 -1.5,2.1 -2.4,2.1 -0.4,0 -0.7,-0.2 -0.8,-0.7 0,-0.2 0,-0.4 0,-0.6 l 0.2,-1 c -1.8,1.4 -3.8,2.3 -4.7,2.3 -1.3,0 -2,-0.7 -2.2,-1.7 -0.8,1.1 -1.9,1.7 -3.1,1.7 -1.5,0 -2.9,-1 -3.6,-2.5 -1,1.1 -2.2,2.2 -3.6,3.1 -2.1,1.3 -4.4,2.4 -7.1,2.4 -2.5,0 -4.7,-1.3 -5.8,-2.4 -1.8,-1.6 -2.7,-4.1 -3,-6.3 -0.9,-7 3.4,-16.3 10.1,-20.3 1.5,-0.9 3.2,-1.4 4.8,-1.4 3.2,0 5.6,2.3 5.9,5 0.3,2.5 -0.7,4.6 -3.4,5.9 -1.4,0.7 -2.1,0.7 -2.3,0.3 -0.1,-0.2 -0.1,-0.6 0.2,-0.8 2.6,-2.1 2.6,-3.9 2.3,-6.4 C 31.6,37.5 30.6,36.5 29.4,36.5 24.2,36.5 17,47.8 18,56 c 0.4,3.2 2.4,6.9 6.4,6.9 1.3,0 2.8,-0.4 4,-1 2.2,-1.1 3.5,-2 4.7,-3.5 -0.3,-3.8 3,-8.6 7.8,-8.6 2.1,0 3.8,0.8 4,2.5 0.3,2.1 -1.5,2.5 -2.2,2.5 -0.6,0 -1.5,-0.2 -1.6,-0.7 -0.1,-0.6 1.3,-0.3 1.1,-1.6 -0.1,-0.8 -1,-1.1 -1.8,-1.1 -3,0 -4.7,4.2 -4.4,6.8 0.1,1.2 0.8,2.4 1.8,2.4 0.9,0 2.2,-1.3 2.6,-3.1 0.3,-1.3 1.5,-2.1 2.4,-2.1 0.5,0 0.8,0.2 0.8,0.7 0,0.2 0,0.4 0,0.6 -0.1,0.5 -0.5,2.4 -0.5,2.7 0,0.3 0.2,0.8 0.8,0.8 0.5,0 2.1,-0.9 3.7,-2.3 0.5,-2.5 1.1,-5.6 1.1,-5.8 0.2,-1 0.6,-2.1 2.6,-2.1 0.4,0 0.7,0.2 0.8,0.7 0,0.2 0,0.4 0,0.6 L 51.6,54 c 1.8,-2.4 4.6,-4.2 6.3,-4.2 0.7,0 1.3,0.4 1.4,1.1 0.1,0.4 -0.1,1.1 -0.3,1.9 -0.6,1.6 -1.3,4.1 -1.7,6.2 -0.1,0.5 0.1,1.1 0.9,1.1 0.7,0 2.8,-0.8 4.5,-3.1 0,-0.3 0,-0.6 0,-1 0,-1.8 0.1,-3.2 0.5,-4.3 0.3,-1.1 1.7,-2.1 2.6,-2.1 0.5,0 0.8,0.3 0.8,0.8 0,0.2 0,0.4 -0.1,0.6 -0.6,1.9 -1,3.6 -1,5.3 0,1 0.2,2.5 0.4,3.3 0,0.2 0.1,0.3 0.3,0.3 0.3,0 2.3,-1.9 3.7,-4.3 -1.3,-0.8 -2,-2.3 -2,-4.1 0,-3 1.8,-4.6 3.6,-4.6 1.4,0 2.6,1 2.6,3 0,1.3 -0.5,2.7 -1.2,4.1 0,0 0.3,0 0.4,0 1.1,0 1.9,-0.5 2.4,-1.1 0.2,-0.2 0.4,-0.4 0.6,-0.5 1.4,-1.7 3.5,-2.9 5.9,-2.9 2.1,0 3.8,0.8 4,2.5 0.3,2.1 -1.6,2.6 -2.2,2.6 -0.6,0 -1.6,-0.2 -1.6,-0.7 -0.1,-0.5 1.3,-0.3 1.2,-1.6 -0.1,-0.8 -1,-1.2 -1.8,-1.2 -2.8,0 -4.7,3.7 -4.4,6.8 0.1,1.2 0.7,2.4 1.8,2.4 0.9,0 2.2,-1.3 2.7,-3.1 0.3,-1.2 1.5,-2.1 2.4,-2.1 0.4,0 0.8,0.2 0.8,0.7 0,0.3 -0.1,0.8 -0.5,2.8 -0.2,0.8 -0.2,1.6 -0.2,2.1 0.2,1.2 0.7,2 1.2,2.5 0.2,0.2 0.3,0.4 0.3,0.5 0,0.3 -0.2,0.6 -0.6,0.6 -0.1,0 -0.3,0 -0.4,-0.1 -2.2,-0.9 -3.1,-2.4 -3.3,-3.7 -0.8,1.1 -1.9,1.6 -3.1,1.6 -1.9,0 -3.8,-1.7 -4.1,-3.9 -0.1,-0.9 0,-1.9 0.3,-2.8 -0.8,0.5 -1.6,0.8 -2.4,0.8 -0.3,0 -0.5,0 -0.7,0 -1.9,2.7 -3.9,4.6 -5.4,5.5 -0.6,0.3 -1.2,0.5 -1.6,0.5 -0.3,0 -0.7,-0.1 -0.9,-0.4 -0.6,-0.4 -0.9,-1.4 -1,-2.6 z m 6.8,-9 c 0,1.2 0.6,2.4 1.3,3.2 0.3,-0.8 0.5,-1.6 0.5,-2.4 0,-1.5 -0.6,-2.2 -1,-2.2 -0.6,0 -0.8,0.8 -0.8,1.4 z"
   id="path6" />
</g>
</svg>
