<?xml version="1.0" encoding="utf-8"?>
<!-- Generator: Adobe Illustrator 22.1.0, SVG Export Plug-In . SVG Version: 6.00 Build 0)  -->
<svg version="1.1" id="Layer_1" xmlns="http://www.w3.org/2000/svg" xmlns:xlink="http://www.w3.org/1999/xlink" x="0px" y="0px"
	 viewBox="0 0 512 512" style="enable-background:new 0 0 512 512;" xml:space="preserve">
<g>
	<path d="M440.2,31H71.8C49.3,31,31,49.3,31,71.8v368.4c0,22.5,18.3,40.8,40.8,40.8h368.4c22.5,0,40.8-18.3,40.8-40.8V71.8
		C481,49.3,462.7,31,440.2,31z M207.9,145.1c0.4,23.5-22.5,27.4-26.7,27.5c-15,0-27.2-12.1-27.2-27.1
		C154,110.2,207.3,109.9,207.9,145.1z M365.3,377.5c-65.9,0-34.3-74.3-25.1-107.1c14.2-46.6-45.4-59.3-60.2,0.7l-25.9,103.8h-45.3
		l8.1-32.6c-31.6,52-95,44.6-95-4.3c0.1-14.4,0.9-14.1,23.1-104.6h-31.9l9.7-35.8h76.7c-33.8,134.3-32.7,127.5-33,138.8
		c0,21,41.1,13.6,57.7-23.3l19.9-79.8h-32.4l9.7-35.8h69.1l-8.9,40.7c40.7-75.8,128.5-48,102.3,38.2c-14.3,51.3-14.7,50.9-15,59.1
		c0,15.6,17.6,22.7,31.9-17l18,6.7C408.2,362.2,389.2,377.5,365.3,377.5z"/>
</g>
</svg>
