<?xml version="1.0" encoding="UTF-8" standalone="no"?>
<svg
   xmlns:dc="http://purl.org/dc/elements/1.1/"
   xmlns:cc="http://creativecommons.org/ns#"
   xmlns:rdf="http://www.w3.org/1999/02/22-rdf-syntax-ns#"
   xmlns:svg="http://www.w3.org/2000/svg"
   xmlns="http://www.w3.org/2000/svg"
   xmlns:xlink="http://www.w3.org/1999/xlink"
   xmlns:sodipodi="http://sodipodi.sourceforge.net/DTD/sodipodi-0.dtd"
   xmlns:inkscape="http://www.inkscape.org/namespaces/inkscape"
   width="354.99579mm"
   height="382.50983mm"
   viewBox="0 0 354.99579 382.50983"
   version="1.1"
   id="svg8"
   sodipodi:docname="plani-icon.svg"
   inkscape:version="1.0.2-2 (e86c870879, 2021-01-15)"
   inkscape:export-filename="C:\Users\marku\Documents\GitHub\markusaj13.github.io\portfolio\inkscape-plani\plani-icon.png"
   inkscape:export-xdpi="26.561409"
   inkscape:export-ydpi="26.561409">
  <defs
     id="defs2">
    <linearGradient
       inkscape:collect="always"
       id="linearGradient1258">
      <stop
         style="stop-color:#3d26f3;stop-opacity:1"
         offset="0"
         id="stop1254" />
      <stop
         style="stop-color:#9548f9;stop-opacity:1"
         offset="1"
         id="stop1256" />
    </linearGradient>
    <linearGradient
       inkscape:collect="always"
       id="linearGradient1252">
      <stop
         style="stop-color:#3d26f3;stop-opacity:1"
         offset="0"
         id="stop1248" />
      <stop
         style="stop-color:#9548f9;stop-opacity:1"
         offset="1"
         id="stop1250" />
    </linearGradient>
    <inkscape:path-effect
       effect="powerstroke"
       id="path-effect1235"
       is_visible="true"
       lpeversion="1"
       offset_points="3,13.4368"
       sort_points="true"
       interpolator_type="CubicBezierJohan"
       interpolator_beta="0.2"
       start_linecap_type="zerowidth"
       linejoin_type="extrp_arc"
       miter_limit="4"
       scale_width="1"
       end_linecap_type="zerowidth" />
    <inkscape:path-effect
       effect="powerstroke"
       id="path-effect1231"
       is_visible="true"
       lpeversion="1"
       offset_points="4,13.4368"
       sort_points="true"
       interpolator_type="CubicBezierJohan"
       interpolator_beta="0.2"
       start_linecap_type="zerowidth"
       linejoin_type="extrp_arc"
       miter_limit="4"
       scale_width="1"
       end_linecap_type="zerowidth" />
    <inkscape:path-effect
       effect="powerstroke"
       id="path-effect1227"
       is_visible="true"
       lpeversion="1"
       offset_points="2,13.4368"
       sort_points="true"
       interpolator_type="CubicBezierJohan"
       interpolator_beta="0.2"
       start_linecap_type="zerowidth"
       linejoin_type="extrp_arc"
       miter_limit="4"
       scale_width="1"
       end_linecap_type="zerowidth" />
    <inkscape:path-effect
       effect="powerstroke"
       id="path-effect1222"
       is_visible="true"
       lpeversion="1"
       offset_points="3,13.4368"
       sort_points="true"
       interpolator_type="CubicBezierJohan"
       interpolator_beta="0.2"
       start_linecap_type="zerowidth"
       linejoin_type="extrp_arc"
       miter_limit="4"
       scale_width="1"
       end_linecap_type="zerowidth" />
    <inkscape:path-effect
       effect="skeletal"
       id="path-effect1218"
       is_visible="true"
       lpeversion="1"
       pattern="M 0,5 C 0,2.24 2.24,0 5,0 7.76,0 10,2.24 10,5 10,7.76 7.76,10 5,10 2.24,10 0,7.76 0,5 Z"
       copytype="single_stretched"
       prop_scale="-5.014"
       scale_y_rel="false"
       spacing="0"
       normal_offset="0"
       tang_offset="0"
       prop_units="false"
       vertical_pattern="false"
       hide_knot="false"
       fuse_tolerance="0" />
    <inkscape:path-effect
       effect="skeletal"
       id="path-effect1214"
       is_visible="true"
       lpeversion="1"
       pattern="m 336.61182,471.7684 c 0,-2.76 2.24,-5 5,-5 2.76,0 5,2.24 5,5 0,2.76 -2.24,5 -5,5 -2.76,0 -5,-2.24 -5,-5 z"
       copytype="single_stretched"
       prop_scale="-5.0140019"
       scale_y_rel="false"
       spacing="0"
       normal_offset="0"
       tang_offset="0"
       prop_units="false"
       vertical_pattern="false"
       hide_knot="false"
       fuse_tolerance="0" />
    <inkscape:path-effect
       effect="skeletal"
       id="path-effect1210"
       is_visible="true"
       lpeversion="1"
       pattern="M 0,5 C 0,2.24 2.24,0 5,0 7.76,0 10,2.24 10,5 10,7.76 7.76,10 5,10 2.24,10 0,7.76 0,5 Z"
       copytype="single_stretched"
       prop_scale="-6.5654005"
       scale_y_rel="false"
       spacing="0"
       normal_offset="0"
       tang_offset="0"
       prop_units="false"
       vertical_pattern="false"
       hide_knot="false"
       fuse_tolerance="0" />
    <inkscape:path-effect
       effect="skeletal"
       id="path-effect1206"
       is_visible="true"
       lpeversion="1"
       pattern="M 0,5 C 0,2.24 2.24,0 5,0 7.76,0 10,2.24 10,5 10,7.76 7.76,10 5,10 2.24,10 0,7.76 0,5 Z"
       copytype="single_stretched"
       prop_scale="-1.34319"
       scale_y_rel="false"
       spacing="0"
       normal_offset="0"
       tang_offset="0"
       prop_units="false"
       vertical_pattern="false"
       hide_knot="false"
       fuse_tolerance="0" />
    <inkscape:path-effect
       effect="skeletal"
       id="path-effect1202"
       is_visible="true"
       lpeversion="1"
       pattern="M 0,5 C 0,2.24 2.24,0 5,0 7.76,0 10,2.24 10,5 10,7.76 7.76,10 5,10 2.24,10 0,7.76 0,5 Z"
       copytype="single_stretched"
       prop_scale="-1.34319"
       scale_y_rel="false"
       spacing="0"
       normal_offset="0"
       tang_offset="0"
       prop_units="false"
       vertical_pattern="false"
       hide_knot="false"
       fuse_tolerance="0" />
    <inkscape:path-effect
       effect="skeletal"
       id="path-effect1198"
       is_visible="true"
       lpeversion="1"
       pattern="M 0,5 C 0,2.24 2.24,0 5,0 7.76,0 10,2.24 10,5 10,7.76 7.76,10 5,10 2.24,10 0,7.76 0,5 Z"
       copytype="single_stretched"
       prop_scale="-1.34319"
       scale_y_rel="false"
       spacing="0"
       normal_offset="0"
       tang_offset="0"
       prop_units="false"
       vertical_pattern="false"
       hide_knot="false"
       fuse_tolerance="0" />
    <inkscape:path-effect
       effect="skeletal"
       id="path-effect1194"
       is_visible="true"
       lpeversion="1"
       pattern="M 0,5 C 0,2.24 2.24,0 5,0 7.76,0 10,2.24 10,5 10,7.76 7.76,10 5,10 2.24,10 0,7.76 0,5 Z"
       copytype="single_stretched"
       prop_scale="-1.34319"
       scale_y_rel="false"
       spacing="0"
       normal_offset="0"
       tang_offset="0"
       prop_units="false"
       vertical_pattern="false"
       hide_knot="false"
       fuse_tolerance="0" />
    <inkscape:path-effect
       effect="skeletal"
       id="path-effect1190"
       is_visible="true"
       lpeversion="1"
       pattern="M 0,5 C 0,2.24 2.24,0 5,0 7.76,0 10,2.24 10,5 10,7.76 7.76,10 5,10 2.24,10 0,7.76 0,5 Z"
       copytype="single_stretched"
       prop_scale="-1.34319"
       scale_y_rel="false"
       spacing="0"
       normal_offset="0"
       tang_offset="0"
       prop_units="false"
       vertical_pattern="false"
       hide_knot="false"
       fuse_tolerance="0" />
    <inkscape:path-effect
       effect="skeletal"
       id="path-effect1186"
       is_visible="true"
       lpeversion="1"
       pattern="M 0,5 C 0,2.24 2.24,0 5,0 7.76,0 10,2.24 10,5 10,7.76 7.76,10 5,10 2.24,10 0,7.76 0,5 Z"
       copytype="single_stretched"
       prop_scale="-1.34319"
       scale_y_rel="false"
       spacing="0"
       normal_offset="0"
       tang_offset="0"
       prop_units="false"
       vertical_pattern="false"
       hide_knot="false"
       fuse_tolerance="0" />
    <inkscape:path-effect
       effect="skeletal"
       id="path-effect1182"
       is_visible="true"
       lpeversion="1"
       pattern="M 0,5 C 0,2.24 2.24,0 5,0 7.76,0 10,2.24 10,5 10,7.76 7.76,10 5,10 2.24,10 0,7.76 0,5 Z"
       copytype="single_stretched"
       prop_scale="-1.34319"
       scale_y_rel="false"
       spacing="0"
       normal_offset="0"
       tang_offset="0"
       prop_units="false"
       vertical_pattern="false"
       hide_knot="false"
       fuse_tolerance="0" />
    <inkscape:path-effect
       effect="skeletal"
       id="path-effect1178"
       is_visible="true"
       lpeversion="1"
       pattern="M 0,5 C 0,2.24 2.24,0 5,0 7.76,0 10,2.24 10,5 10,7.76 7.76,10 5,10 2.24,10 0,7.76 0,5 Z"
       copytype="single_stretched"
       prop_scale="-1.34319"
       scale_y_rel="false"
       spacing="0"
       normal_offset="0"
       tang_offset="0"
       prop_units="false"
       vertical_pattern="false"
       hide_knot="false"
       fuse_tolerance="0" />
    <inkscape:path-effect
       effect="powerstroke"
       id="path-effect1129"
       is_visible="true"
       lpeversion="1"
       offset_points="0,1.69466"
       sort_points="true"
       interpolator_type="CubicBezierJohan"
       interpolator_beta="0.2"
       start_linecap_type="zerowidth"
       linejoin_type="extrp_arc"
       miter_limit="4"
       scale_width="1"
       end_linecap_type="zerowidth" />
    <inkscape:path-effect
       effect="powerstroke"
       id="path-effect1093"
       is_visible="true"
       lpeversion="1"
       offset_points="0,1.69466"
       sort_points="true"
       interpolator_type="CubicBezierJohan"
       interpolator_beta="0.2"
       start_linecap_type="zerowidth"
       linejoin_type="extrp_arc"
       miter_limit="4"
       scale_width="1"
       end_linecap_type="zerowidth" />
    <inkscape:path-effect
       effect="powerstroke"
       id="path-effect1008"
       is_visible="true"
       lpeversion="1"
       offset_points="2.887232,-18.667695"
       sort_points="true"
       interpolator_type="CubicBezierJohan"
       interpolator_beta="0.2"
       start_linecap_type="zerowidth"
       linejoin_type="extrp_arc"
       miter_limit="4"
       scale_width="1"
       end_linecap_type="zerowidth" />
    <inkscape:path-effect
       effect="powerstroke"
       id="path-effect992"
       is_visible="true"
       lpeversion="1"
       offset_points="1.2763637,-1.6946648"
       sort_points="true"
       interpolator_type="CubicBezierJohan"
       interpolator_beta="0.2"
       start_linecap_type="zerowidth"
       linejoin_type="extrp_arc"
       miter_limit="4"
       scale_width="1"
       end_linecap_type="zerowidth" />
    <inkscape:path-effect
       effect="skeletal"
       id="path-effect963"
       is_visible="true"
       lpeversion="1"
       pattern="M 0,5 C 0,2.24 2.24,0 5,0 7.76,0 10,2.24 10,5 10,7.76 7.76,10 5,10 2.24,10 0,7.76 0,5 Z"
       copytype="single_stretched"
       prop_scale="-1.34319"
       scale_y_rel="false"
       spacing="0"
       normal_offset="0"
       tang_offset="0"
       prop_units="false"
       vertical_pattern="false"
       hide_knot="false"
       fuse_tolerance="0" />
    <inkscape:path-effect
       effect="skeletal"
       id="path-effect929"
       is_visible="true"
       lpeversion="1"
       pattern="M 0,5 C 0,2.24 2.24,0 5,0 7.76,0 10,2.24 10,5 10,7.76 7.76,10 5,10 2.24,10 0,7.76 0,5 Z"
       copytype="single_stretched"
       prop_scale="-1.3431878"
       scale_y_rel="false"
       spacing="0"
       normal_offset="0"
       tang_offset="0"
       prop_units="false"
       vertical_pattern="false"
       hide_knot="false"
       fuse_tolerance="0" />
    <inkscape:path-effect
       effect="skeletal"
       id="path-effect925"
       is_visible="true"
       lpeversion="1"
       pattern="M 0,5 C 0,2.24 2.24,0 5,0 7.76,0 10,2.24 10,5 10,7.76 7.76,10 5,10 2.24,10 0,7.76 0,5 Z"
       copytype="single_stretched"
       prop_scale="0.070198"
       scale_y_rel="false"
       spacing="0"
       normal_offset="0"
       tang_offset="0"
       prop_units="false"
       vertical_pattern="false"
       hide_knot="false"
       fuse_tolerance="0" />
    <inkscape:path-effect
       effect="skeletal"
       id="path-effect869"
       is_visible="true"
       lpeversion="1"
       pattern="M 0,5 C 0,2.24 2.24,0 5,0 7.76,0 10,2.24 10,5 10,7.76 7.76,10 5,10 2.24,10 0,7.76 0,5 Z"
       copytype="single_stretched"
       prop_scale="0.070198"
       scale_y_rel="false"
       spacing="0"
       normal_offset="0"
       tang_offset="0"
       prop_units="false"
       vertical_pattern="false"
       hide_knot="false"
       fuse_tolerance="0" />
    <clipPath
       clipPathUnits="userSpaceOnUse"
       id="clipPath1066">
      <path
         id="path1068"
         style="fill:#000000;fill-opacity:1;stroke:none;stroke-width:0.264583px;stroke-linecap:butt;stroke-linejoin:miter;stroke-opacity:1"
         d="m -491.46669,-21.771443 c -36.8935,0.752679 -73.41526,7.882533 -108.66157,18.6417151 -30.48394,9.2536179 -60.35625,20.6741909 -88.61579,35.4598479 -7.93604,4.199739 -15.86931,8.536043 -23.41599,13.44336 -4.28186,2.853902 -8.46439,5.922299 -12.12175,9.552731 -1.62156,1.95235 -2.61403,4.477121 -2.87981,6.881191 -0.35242,3.006606 0.37566,6.02026 2.18816,8.458266 3.39545,4.734282 10.2857,6.533044 15.54723,4.001619 5.27648,-1.996175 10.24824,-4.690467 15.42447,-6.919521 20.74045,-9.59731 41.89685,-18.33509 63.5807,-25.57517 25.26932,-8.64194 51.11681,-15.612594 77.32421,-20.757797 27.02415,-5.134005 54.6911,-7.669048 82.17567,-5.562291 18.86828,1.410169 37.81573,5.014482 55.07837,12.992092 9.1431,4.271798 17.85302,9.9416 24.35267,17.760844 4.51781,5.460444 7.70578,12.174979 8.28905,19.293036 0.56817,6.417479 -0.091,13.072734 -2.80662,18.974678 -3.02834,6.850057 -8.29739,12.425926 -14.05321,17.091052 -8.52461,6.7638 -18.28742,11.76689 -28.25761,16.03137 -10.96108,4.62859 -22.30744,8.28051 -33.74077,11.5428 -24.91561,7.04066 -50.38162,11.85018 -75.81255,16.61076 -35.33068,6.51031 -70.85528,12.12265 -105.78563,20.62893 -10.01866,2.49811 -20.04528,5.23258 -29.55491,9.34379 -3.83622,1.92124 -7.07337,5.55409 -7.55208,9.93777 -0.69276,5.12681 2.03586,10.59869 6.8431,12.69726 3.70891,1.85114 8.03688,1.54218 11.97986,0.73782 14.28123,-2.10435 28.49555,-4.6339 42.79173,-6.6761 40.86211,-6.14643 81.95907,-10.95534 122.5991,-18.36062 23.28574,-4.31989 46.45179,-9.5052 68.90406,-17.13572 13.42512,-4.64618 26.50146,-10.20804 38.66288,-17.58773 11.60547,-7.02589 22.2745,-15.86833 30.1975,-26.9734 7.93536,-11.07946 12.63936,-24.462744 13.42472,-38.014676 0.44355,-7.598685 -0.17769,-15.294309 -2.03393,-22.724991 -1.32503,-5.364885 -3.263,-10.630937 -5.76927,-15.570793 -3.47366,-6.915494 -8.18845,-13.164698 -13.52886,-18.782225 -12.09185,-12.6190419 -27.69653,-21.3918484 -43.99441,-27.425547 -13.68105,-5.045845 -28.01728,-8.154728 -42.46621,-10.010444 -12.69381,-1.579309 -25.50382,-2.128015 -38.31251,-2.003907 z" />
    </clipPath>
    <clipPath
       clipPathUnits="userSpaceOnUse"
       id="clipPath1066-6">
      <path
         id="path1068-7"
         style="fill:#000000;fill-opacity:1;stroke:none;stroke-width:0.264583px;stroke-linecap:butt;stroke-linejoin:miter;stroke-opacity:1"
         d="m -491.46669,-21.771443 c -36.8935,0.752679 -73.41526,7.882533 -108.66157,18.6417151 -30.48394,9.2536179 -60.35625,20.6741909 -88.61579,35.4598479 -7.93604,4.199739 -15.86931,8.536043 -23.41599,13.44336 -4.28186,2.853902 -8.46439,5.922299 -12.12175,9.552731 -1.62156,1.95235 -2.61403,4.477121 -2.87981,6.881191 -0.35242,3.006606 0.37566,6.02026 2.18816,8.458266 3.39545,4.734282 10.2857,6.533044 15.54723,4.001619 5.27648,-1.996175 10.24824,-4.690467 15.42447,-6.919521 20.74045,-9.59731 41.89685,-18.33509 63.5807,-25.57517 25.26932,-8.64194 51.11681,-15.612594 77.32421,-20.757797 27.02415,-5.134005 54.6911,-7.669048 82.17567,-5.562291 18.86828,1.410169 37.81573,5.014482 55.07837,12.992092 9.1431,4.271798 17.85302,9.9416 24.35267,17.760844 4.51781,5.460444 7.70578,12.174979 8.28905,19.293036 0.56817,6.417479 -0.091,13.072734 -2.80662,18.974678 -3.02834,6.850057 -8.29739,12.425926 -14.05321,17.091052 -8.52461,6.7638 -18.28742,11.76689 -28.25761,16.03137 -10.96108,4.62859 -22.30744,8.28051 -33.74077,11.5428 -24.91561,7.04066 -50.38162,11.85018 -75.81255,16.61076 -35.33068,6.51031 -70.85528,12.12265 -105.78563,20.62893 -10.01866,2.49811 -20.04528,5.23258 -29.55491,9.34379 -3.83622,1.92124 -7.07337,5.55409 -7.55208,9.93777 -0.69276,5.12681 2.03586,10.59869 6.8431,12.69726 3.70891,1.85114 8.03688,1.54218 11.97986,0.73782 14.28123,-2.10435 28.49555,-4.6339 42.79173,-6.6761 40.86211,-6.14643 81.95907,-10.95534 122.5991,-18.36062 23.28574,-4.31989 46.45179,-9.5052 68.90406,-17.13572 13.42512,-4.64618 26.50146,-10.20804 38.66288,-17.58773 11.60547,-7.02589 22.2745,-15.86833 30.1975,-26.9734 7.93536,-11.07946 12.63936,-24.462744 13.42472,-38.014676 0.44355,-7.598685 -0.17769,-15.294309 -2.03393,-22.724991 -1.32503,-5.364885 -3.263,-10.630937 -5.76927,-15.570793 -3.47366,-6.915494 -8.18845,-13.164698 -13.52886,-18.782225 -12.09185,-12.6190419 -27.69653,-21.3918484 -43.99441,-27.425547 -13.68105,-5.045845 -28.01728,-8.154728 -42.46621,-10.010444 -12.69381,-1.579309 -25.50382,-2.128015 -38.31251,-2.003907 z" />
    </clipPath>
    <linearGradient
       inkscape:collect="always"
       xlink:href="#linearGradient1252"
       id="linearGradient1244"
       x1="-126.94427"
       y1="856.87378"
       x2="95.208199"
       y2="524.70294"
       gradientUnits="userSpaceOnUse"
       gradientTransform="translate(53.293196,-90.302355)" />
    <linearGradient
       inkscape:collect="always"
       xlink:href="#linearGradient1258"
       id="linearGradient1246"
       x1="-126.94427"
       y1="856.87378"
       x2="95.208199"
       y2="524.70294"
       gradientUnits="userSpaceOnUse"
       gradientTransform="translate(53.293196,-90.302355)" />
  </defs>
  <sodipodi:namedview
     id="base"
     pagecolor="#ffffff"
     bordercolor="#666666"
     borderopacity="1.0"
     inkscape:pageopacity="0.0"
     inkscape:pageshadow="2"
     inkscape:zoom="0.17872826"
     inkscape:cx="619.34778"
     inkscape:cy="257.93698"
     inkscape:document-units="mm"
     inkscape:current-layer="layer1"
     inkscape:document-rotation="0"
     showgrid="false"
     inkscape:window-width="1920"
     inkscape:window-height="1017"
     inkscape:window-x="-8"
     inkscape:window-y="-8"
     inkscape:window-maximized="1" />
  <metadata
     id="metadata5">
    <rdf:RDF>
      <cc:Work
         rdf:about="">
        <dc:format>image/svg+xml</dc:format>
        <dc:type
           rdf:resource="http://purl.org/dc/dcmitype/StillImage" />
        <dc:title />
      </cc:Work>
    </rdf:RDF>
  </metadata>
  <g
     inkscape:label="Layer 1"
     inkscape:groupmode="layer"
     id="layer1"
     transform="translate(52.019858,-311.52614)">
    <g
       id="g869"
       inkscape:export-xdpi="96"
       inkscape:export-ydpi="96">
      <path
         id="path1208"
         style="fill:url(#linearGradient1244);fill-opacity:1;stroke:none;stroke-width:0.264583px;stroke-linecap:butt;stroke-linejoin:miter;stroke-opacity:1"
         d="m 159.96191,311.52693 c -33.97583,0.0846 -64.77092,6.92082 -90.05289,15.23163 -41.921143,13.63723 -74.5144231,32.31337 -94.297103,46.47106 -20.361221,14.57175 -29.763331,25.75964 -27.226241,30.46584 2.53709,4.70621 16.76591,2.45181 39.947961,-3.58066 20.9647599,-5.45547 57.599159,-16.33287 94.311553,-22.54384 14.85085,-2.46138 31.12061,-4.61189 47.72318,-5.32009 l 40.98147,-60.49656 c -3.83275,-0.16299 -7.62986,-0.23674 -11.38793,-0.22738 z m 53.99463,6.57221 -63.24626,54.0799 c 6.72828,0.26397 13.43903,0.83607 20.06132,1.79421 18.4192,2.93612 36.87828,7.61435 49.55511,17.25218 4.6759,3.41859 8.75149,7.07332 11.44529,10.94506 1.5049,2.1338 2.79567,4.33912 3.7238,6.50193 0.51411,1.19806 0.91437,2.37678 1.17977,3.5202 0.83148,3.06682 0.99256,6.55411 0.53796,9.82008 -0.40529,3.66824 -2.01637,7.79057 -4.20802,11.89695 -5.61681,11.61718 -19.20118,21.44257 -33.41708,30.01418 -23.90037,13.68891 -52.99446,20.68563 -78.21899,25.39278 -35.38148,6.42247 -72.909084,8.44399 -93.696103,10.30118 -23.2092501,2.07359 -36.9707301,4.71812 -37.77186,9.92342 -0.8011,5.2053 11.4117199,12.454 34.79996,19.27118 22.650689,6.6022 58.766343,13.2957 101.782933,12.0928 29.32692,-0.68591 65.13838,-5.61488 100.84448,-21.96042 21.83072,-9.5962 44.69638,-26.04829 61.37714,-51.95704 6.20136,-10.02604 10.80294,-21.68159 13.06277,-34.60978 1.98459,-11.92511 1.54541,-24.27632 -1.48984,-36.38796 -1.13945,-4.37118 -2.56749,-8.60656 -4.26485,-12.6845 -3.0662,-7.36654 -6.97827,-14.13862 -11.56776,-20.2184 -8.07212,-10.63745 -17.47362,-19.17089 -27.4092,-25.71264 -14.07636,-9.06285 -28.69133,-15.25533 -43.08057,-19.27531 z" />
      <path
         id="path1212"
         style="fill:url(#linearGradient1246);fill-opacity:1;stroke:none;stroke-width:0.264583px;stroke-linecap:butt;stroke-linejoin:miter;stroke-opacity:1"
         d="m 73.50638,415.71801 c -6.69791,-0.0622 -19.331774,8.46246 -33.048626,26.29244 -16.492971,21.43855 -32.3711991,53.87743 -39.8301201,94.7043 -0.573987,3.11642 -1.099714,6.26372 -1.575091,9.44026 -4.93022,32.94292 -3.612674,63.21612 0.547767,87.65667 L 45.883263,573.57089 c 0.78854,-6.48589 1.684279,-13.13492 2.720247,-19.9409 0.422463,-2.77543 0.860589,-5.52479 1.313617,-8.25066 6.188831,-36.87075 13.665933,-63.0273 20.936183,-87.37813 6.62615,-22.19346 11.20688,-37.30458 5.73299,-41.37009 -0.80241,-0.59595 -1.83956,-0.90159 -3.07992,-0.9131 z M 42.142923,611.47711 1.8776839,645.42646 c 0.632619,2.83345 1.300163,5.56879 1.998848,8.19277 7.1286161,26.77298 16.9260301,41.55292 23.5215641,40.34845 6.80675,-1.24303 9.682824,-18.15232 11.803922,-43.71517 0.969994,-11.69014 1.808911,-24.67282 2.940905,-38.7754 z" />
    </g>
  </g>
</svg>
