<?xml version="1.0" encoding="UTF-8" standalone="no"?>
<svg
   xmlns:dc="http://purl.org/dc/elements/1.1/"
   xmlns:cc="http://creativecommons.org/ns#"
   xmlns:rdf="http://www.w3.org/1999/02/22-rdf-syntax-ns#"
   xmlns:svg="http://www.w3.org/2000/svg"
   xmlns="http://www.w3.org/2000/svg"
   xmlns:xlink="http://www.w3.org/1999/xlink"
   xmlns:sodipodi="http://sodipodi.sourceforge.net/DTD/sodipodi-0.dtd"
   xmlns:inkscape="http://www.inkscape.org/namespaces/inkscape"
   width="2360.2886mm"
   height="936.11371mm"
   viewBox="0 0 2360.2886 936.11371"
   version="1.1"
   id="svg8"
   sodipodi:docname="plani_3.svg"
   inkscape:version="1.0.1 (3bc2e813f5, 2020-09-07)">
  <defs
     id="defs2">
    <inkscape:path-effect
       effect="skeletal"
       id="path-effect2026"
       is_visible="true"
       lpeversion="1"
       pattern="M 0,5 C 0,2.24 2.24,0 5,0 7.76,0 10,2.24 10,5 10,7.76 7.76,10 5,10 2.24,10 0,7.76 0,5 Z"
       copytype="single_stretched"
       prop_scale="3.77255"
       scale_y_rel="false"
       spacing="0"
       normal_offset="0"
       tang_offset="0"
       prop_units="false"
       vertical_pattern="false"
       hide_knot="false"
       fuse_tolerance="0" />
    <inkscape:path-effect
       effect="skeletal"
       id="path-effect1422"
       is_visible="true"
       lpeversion="1"
       pattern="m -76.626286,-172.72877 c 0,-2.76 2.24,-5 5,-5 2.76,0 5,2.24 5,5 0,2.76 -2.24,5 -5,5 -2.76,0 -5,-2.24 -5,-5 z"
       copytype="single_stretched"
       prop_scale="3.772548"
       scale_y_rel="false"
       spacing="0"
       normal_offset="0"
       tang_offset="0"
       prop_units="false"
       vertical_pattern="false"
       hide_knot="false"
       fuse_tolerance="0" />
    <inkscape:path-effect
       effect="skeletal"
       id="path-effect1418"
       is_visible="true"
       lpeversion="1"
       pattern="M 0,5 C 0,2.24 2.24,0 5,0 7.76,0 10,2.24 10,5 10,7.76 7.76,10 5,10 2.24,10 0,7.76 0,5 Z"
       copytype="single_stretched"
       prop_scale="4.23333"
       scale_y_rel="false"
       spacing="0"
       normal_offset="0"
       tang_offset="0"
       prop_units="false"
       vertical_pattern="false"
       hide_knot="false"
       fuse_tolerance="0" />
    <inkscape:path-effect
       effect="skeletal"
       id="path-effect1414"
       is_visible="true"
       lpeversion="1"
       pattern="M 0,5 C 0,2.24 2.24,0 5,0 7.76,0 10,2.24 10,5 10,7.76 7.76,10 5,10 2.24,10 0,7.76 0,5 Z"
       copytype="single_stretched"
       prop_scale="11.9737"
       scale_y_rel="false"
       spacing="0"
       normal_offset="0"
       tang_offset="0"
       prop_units="false"
       vertical_pattern="false"
       hide_knot="false"
       fuse_tolerance="0" />
    <inkscape:path-effect
       effect="skeletal"
       id="path-effect1410"
       is_visible="true"
       lpeversion="1"
       pattern="M 0,5 C 0,2.24 2.24,0 5,0 7.76,0 10,2.24 10,5 10,7.76 7.76,10 5,10 2.24,10 0,7.76 0,5 Z"
       copytype="single_stretched"
       prop_scale="-2.40277"
       scale_y_rel="false"
       spacing="0"
       normal_offset="0"
       tang_offset="0"
       prop_units="false"
       vertical_pattern="false"
       hide_knot="false"
       fuse_tolerance="0" />
    <inkscape:path-effect
       effect="powerstroke"
       id="path-effect1406"
       is_visible="true"
       lpeversion="1"
       offset_points="0,13.4368"
       sort_points="true"
       interpolator_type="CubicBezierJohan"
       interpolator_beta="0.2"
       start_linecap_type="zerowidth"
       linejoin_type="extrp_arc"
       miter_limit="4"
       scale_width="1"
       end_linecap_type="zerowidth" />
    <inkscape:path-effect
       effect="powerstroke"
       id="path-effect1402"
       is_visible="true"
       lpeversion="1"
       offset_points="3,13.4368"
       sort_points="true"
       interpolator_type="CubicBezierJohan"
       interpolator_beta="0.2"
       start_linecap_type="zerowidth"
       linejoin_type="extrp_arc"
       miter_limit="4"
       scale_width="1"
       end_linecap_type="zerowidth" />
    <inkscape:path-effect
       effect="skeletal"
       id="path-effect1294"
       is_visible="true"
       lpeversion="1"
       pattern="m 48.954165,218.00548 c 0,-2.76 2.24,-5 5,-5 2.76,0 5,2.24 5,5 0,2.76 -2.24,5 -5,5 -2.76,0 -5,-2.24 -5,-5 z"
       copytype="single_stretched"
       prop_scale="-2.4027681"
       scale_y_rel="false"
       spacing="0"
       normal_offset="0"
       tang_offset="0"
       prop_units="false"
       vertical_pattern="false"
       hide_knot="false"
       fuse_tolerance="0" />
    <inkscape:path-effect
       effect="powerstroke"
       id="path-effect1290"
       is_visible="true"
       lpeversion="1"
       offset_points="0,13.4368"
       sort_points="true"
       interpolator_type="CubicBezierJohan"
       interpolator_beta="0.2"
       start_linecap_type="zerowidth"
       linejoin_type="extrp_arc"
       miter_limit="4"
       scale_width="1"
       end_linecap_type="zerowidth" />
    <inkscape:path-effect
       effect="skeletal"
       id="path-effect1286"
       is_visible="true"
       lpeversion="1"
       pattern="m 48.954165,218.00548 c 0,-2.76 2.24,-5 5,-5 2.76,0 5,2.24 5,5 0,2.76 -2.24,5 -5,5 -2.76,0 -5,-2.24 -5,-5 z"
       copytype="single_stretched"
       prop_scale="-3.2203561"
       scale_y_rel="false"
       spacing="0"
       normal_offset="0"
       tang_offset="0"
       prop_units="false"
       vertical_pattern="false"
       hide_knot="false"
       fuse_tolerance="0" />
    <inkscape:path-effect
       effect="skeletal"
       id="path-effect1282"
       is_visible="true"
       lpeversion="1"
       pattern="m 35.076886,218.62139 c 0,-2.76 2.24,-5 5,-5 2.76,0 5,2.24 5,5 0,2.76 -2.24,5 -5,5 -2.76,0 -5,-2.24 -5,-5 z"
       copytype="single_stretched"
       prop_scale="-4.4690859"
       scale_y_rel="false"
       spacing="0"
       normal_offset="0"
       tang_offset="0"
       prop_units="false"
       vertical_pattern="false"
       hide_knot="false"
       fuse_tolerance="0" />
    <inkscape:path-effect
       effect="skeletal"
       id="path-effect1278"
       is_visible="true"
       lpeversion="1"
       pattern="m 45.549254,216.37731 c 0,-2.76 2.24,-5 5,-5 2.76,0 5,2.24 5,5 0,2.76 -2.24,5 -5,5 -2.76,0 -5,-2.24 -5,-5 z"
       copytype="single_stretched"
       prop_scale="-3.5220419"
       scale_y_rel="false"
       spacing="0"
       normal_offset="0"
       tang_offset="0"
       prop_units="false"
       vertical_pattern="false"
       hide_knot="false"
       fuse_tolerance="0" />
    <inkscape:path-effect
       effect="skeletal"
       id="path-effect1274"
       is_visible="true"
       lpeversion="1"
       pattern="m 56.073643,210.88982 c 0,-2.76 2.24,-5 5,-5 2.76,0 5,2.24 5,5 0,2.76 -2.24,5 -5,5 -2.76,0 -5,-2.24 -5,-5 z"
       copytype="single_stretched"
       prop_scale="-4.1577763"
       scale_y_rel="false"
       spacing="0"
       normal_offset="0"
       tang_offset="0"
       prop_units="false"
       vertical_pattern="false"
       hide_knot="false"
       fuse_tolerance="0" />
    <inkscape:path-effect
       effect="skeletal"
       id="path-effect1270"
       is_visible="true"
       lpeversion="1"
       pattern="m 56.073643,210.88982 c 0,-2.76 2.24,-5 5,-5 2.76,0 5,2.24 5,5 0,2.76 -2.24,5 -5,5 -2.76,0 -5,-2.24 -5,-5 z"
       copytype="single_stretched"
       prop_scale="-4.3893808"
       scale_y_rel="false"
       spacing="0"
       normal_offset="0"
       tang_offset="0"
       prop_units="false"
       vertical_pattern="false"
       hide_knot="false"
       fuse_tolerance="0" />
    <inkscape:path-effect
       effect="skeletal"
       id="path-effect1266"
       is_visible="true"
       lpeversion="1"
       pattern="m 106.34969,189.38971 c 0,-2.76 2.11831,-5 4.72836,-5 2.61006,0 4.72837,2.24 4.72837,5 0,2.76 -2.11831,5 -4.72837,5 -2.61005,0 -4.72836,-2.24 -4.72836,-5 z"
       copytype="single_stretched"
       prop_scale="-5.3598172"
       scale_y_rel="false"
       spacing="0"
       normal_offset="0"
       tang_offset="0"
       prop_units="false"
       vertical_pattern="false"
       hide_knot="false"
       fuse_tolerance="0" />
    <inkscape:path-effect
       effect="powerstroke"
       id="path-effect1262"
       is_visible="true"
       lpeversion="1"
       offset_points="2,13.4368"
       sort_points="true"
       interpolator_type="CubicBezierJohan"
       interpolator_beta="0.2"
       start_linecap_type="zerowidth"
       linejoin_type="extrp_arc"
       miter_limit="4"
       scale_width="1"
       end_linecap_type="zerowidth" />
    <linearGradient
       inkscape:collect="always"
       id="linearGradient1258">
      <stop
         style="stop-color:#3d26f3;stop-opacity:1"
         offset="0"
         id="stop1254" />
      <stop
         style="stop-color:#9548f9;stop-opacity:1"
         offset="1"
         id="stop1256" />
    </linearGradient>
    <inkscape:path-effect
       effect="powerstroke"
       id="path-effect1235"
       is_visible="true"
       lpeversion="1"
       offset_points="3,13.4368"
       sort_points="true"
       interpolator_type="CubicBezierJohan"
       interpolator_beta="0.2"
       start_linecap_type="zerowidth"
       linejoin_type="extrp_arc"
       miter_limit="4"
       scale_width="1"
       end_linecap_type="zerowidth" />
    <inkscape:path-effect
       effect="powerstroke"
       id="path-effect1231"
       is_visible="true"
       lpeversion="1"
       offset_points="4,13.4368"
       sort_points="true"
       interpolator_type="CubicBezierJohan"
       interpolator_beta="0.2"
       start_linecap_type="zerowidth"
       linejoin_type="extrp_arc"
       miter_limit="4"
       scale_width="1"
       end_linecap_type="zerowidth" />
    <inkscape:path-effect
       effect="powerstroke"
       id="path-effect1227"
       is_visible="true"
       lpeversion="1"
       offset_points="2,13.4368"
       sort_points="true"
       interpolator_type="CubicBezierJohan"
       interpolator_beta="0.2"
       start_linecap_type="zerowidth"
       linejoin_type="extrp_arc"
       miter_limit="4"
       scale_width="1"
       end_linecap_type="zerowidth" />
    <inkscape:path-effect
       effect="powerstroke"
       id="path-effect1222"
       is_visible="true"
       lpeversion="1"
       offset_points="3,13.4368"
       sort_points="true"
       interpolator_type="CubicBezierJohan"
       interpolator_beta="0.2"
       start_linecap_type="zerowidth"
       linejoin_type="extrp_arc"
       miter_limit="4"
       scale_width="1"
       end_linecap_type="zerowidth" />
    <inkscape:path-effect
       effect="skeletal"
       id="path-effect1218"
       is_visible="true"
       lpeversion="1"
       pattern="M 0,5 C 0,2.24 2.24,0 5,0 7.76,0 10,2.24 10,5 10,7.76 7.76,10 5,10 2.24,10 0,7.76 0,5 Z"
       copytype="single_stretched"
       prop_scale="-5.014"
       scale_y_rel="false"
       spacing="0"
       normal_offset="0"
       tang_offset="0"
       prop_units="false"
       vertical_pattern="false"
       hide_knot="false"
       fuse_tolerance="0" />
    <inkscape:path-effect
       effect="skeletal"
       id="path-effect1214"
       is_visible="true"
       lpeversion="1"
       pattern="m 336.61182,471.7684 c 0,-2.76 2.24,-5 5,-5 2.76,0 5,2.24 5,5 0,2.76 -2.24,5 -5,5 -2.76,0 -5,-2.24 -5,-5 z"
       copytype="single_stretched"
       prop_scale="-5.0140019"
       scale_y_rel="false"
       spacing="0"
       normal_offset="0"
       tang_offset="0"
       prop_units="false"
       vertical_pattern="false"
       hide_knot="false"
       fuse_tolerance="0" />
    <inkscape:path-effect
       effect="skeletal"
       id="path-effect1210"
       is_visible="true"
       lpeversion="1"
       pattern="M 0,5 C 0,2.24 2.24,0 5,0 7.76,0 10,2.24 10,5 10,7.76 7.76,10 5,10 2.24,10 0,7.76 0,5 Z"
       copytype="single_stretched"
       prop_scale="-6.5654005"
       scale_y_rel="false"
       spacing="0"
       normal_offset="0"
       tang_offset="0"
       prop_units="false"
       vertical_pattern="false"
       hide_knot="false"
       fuse_tolerance="0" />
    <inkscape:path-effect
       effect="skeletal"
       id="path-effect1206"
       is_visible="true"
       lpeversion="1"
       pattern="M 0,5 C 0,2.24 2.24,0 5,0 7.76,0 10,2.24 10,5 10,7.76 7.76,10 5,10 2.24,10 0,7.76 0,5 Z"
       copytype="single_stretched"
       prop_scale="-1.34319"
       scale_y_rel="false"
       spacing="0"
       normal_offset="0"
       tang_offset="0"
       prop_units="false"
       vertical_pattern="false"
       hide_knot="false"
       fuse_tolerance="0" />
    <inkscape:path-effect
       effect="skeletal"
       id="path-effect1202"
       is_visible="true"
       lpeversion="1"
       pattern="M 0,5 C 0,2.24 2.24,0 5,0 7.76,0 10,2.24 10,5 10,7.76 7.76,10 5,10 2.24,10 0,7.76 0,5 Z"
       copytype="single_stretched"
       prop_scale="-1.34319"
       scale_y_rel="false"
       spacing="0"
       normal_offset="0"
       tang_offset="0"
       prop_units="false"
       vertical_pattern="false"
       hide_knot="false"
       fuse_tolerance="0" />
    <inkscape:path-effect
       effect="skeletal"
       id="path-effect1198"
       is_visible="true"
       lpeversion="1"
       pattern="M 0,5 C 0,2.24 2.24,0 5,0 7.76,0 10,2.24 10,5 10,7.76 7.76,10 5,10 2.24,10 0,7.76 0,5 Z"
       copytype="single_stretched"
       prop_scale="-1.34319"
       scale_y_rel="false"
       spacing="0"
       normal_offset="0"
       tang_offset="0"
       prop_units="false"
       vertical_pattern="false"
       hide_knot="false"
       fuse_tolerance="0" />
    <inkscape:path-effect
       effect="skeletal"
       id="path-effect1194"
       is_visible="true"
       lpeversion="1"
       pattern="M 0,5 C 0,2.24 2.24,0 5,0 7.76,0 10,2.24 10,5 10,7.76 7.76,10 5,10 2.24,10 0,7.76 0,5 Z"
       copytype="single_stretched"
       prop_scale="-1.34319"
       scale_y_rel="false"
       spacing="0"
       normal_offset="0"
       tang_offset="0"
       prop_units="false"
       vertical_pattern="false"
       hide_knot="false"
       fuse_tolerance="0" />
    <inkscape:path-effect
       effect="skeletal"
       id="path-effect1190"
       is_visible="true"
       lpeversion="1"
       pattern="M 0,5 C 0,2.24 2.24,0 5,0 7.76,0 10,2.24 10,5 10,7.76 7.76,10 5,10 2.24,10 0,7.76 0,5 Z"
       copytype="single_stretched"
       prop_scale="-1.34319"
       scale_y_rel="false"
       spacing="0"
       normal_offset="0"
       tang_offset="0"
       prop_units="false"
       vertical_pattern="false"
       hide_knot="false"
       fuse_tolerance="0" />
    <inkscape:path-effect
       effect="skeletal"
       id="path-effect1186"
       is_visible="true"
       lpeversion="1"
       pattern="M 0,5 C 0,2.24 2.24,0 5,0 7.76,0 10,2.24 10,5 10,7.76 7.76,10 5,10 2.24,10 0,7.76 0,5 Z"
       copytype="single_stretched"
       prop_scale="-1.34319"
       scale_y_rel="false"
       spacing="0"
       normal_offset="0"
       tang_offset="0"
       prop_units="false"
       vertical_pattern="false"
       hide_knot="false"
       fuse_tolerance="0" />
    <inkscape:path-effect
       effect="skeletal"
       id="path-effect1182"
       is_visible="true"
       lpeversion="1"
       pattern="M 0,5 C 0,2.24 2.24,0 5,0 7.76,0 10,2.24 10,5 10,7.76 7.76,10 5,10 2.24,10 0,7.76 0,5 Z"
       copytype="single_stretched"
       prop_scale="-1.34319"
       scale_y_rel="false"
       spacing="0"
       normal_offset="0"
       tang_offset="0"
       prop_units="false"
       vertical_pattern="false"
       hide_knot="false"
       fuse_tolerance="0" />
    <inkscape:path-effect
       effect="skeletal"
       id="path-effect1178"
       is_visible="true"
       lpeversion="1"
       pattern="M 0,5 C 0,2.24 2.24,0 5,0 7.76,0 10,2.24 10,5 10,7.76 7.76,10 5,10 2.24,10 0,7.76 0,5 Z"
       copytype="single_stretched"
       prop_scale="-1.34319"
       scale_y_rel="false"
       spacing="0"
       normal_offset="0"
       tang_offset="0"
       prop_units="false"
       vertical_pattern="false"
       hide_knot="false"
       fuse_tolerance="0" />
    <inkscape:path-effect
       effect="powerstroke"
       id="path-effect1129"
       is_visible="true"
       lpeversion="1"
       offset_points="0,1.69466"
       sort_points="true"
       interpolator_type="CubicBezierJohan"
       interpolator_beta="0.2"
       start_linecap_type="zerowidth"
       linejoin_type="extrp_arc"
       miter_limit="4"
       scale_width="1"
       end_linecap_type="zerowidth" />
    <inkscape:path-effect
       effect="powerstroke"
       id="path-effect1093"
       is_visible="true"
       lpeversion="1"
       offset_points="0,1.69466"
       sort_points="true"
       interpolator_type="CubicBezierJohan"
       interpolator_beta="0.2"
       start_linecap_type="zerowidth"
       linejoin_type="extrp_arc"
       miter_limit="4"
       scale_width="1"
       end_linecap_type="zerowidth" />
    <inkscape:path-effect
       effect="powerstroke"
       id="path-effect1008"
       is_visible="true"
       lpeversion="1"
       offset_points="2.887232,-18.667695"
       sort_points="true"
       interpolator_type="CubicBezierJohan"
       interpolator_beta="0.2"
       start_linecap_type="zerowidth"
       linejoin_type="extrp_arc"
       miter_limit="4"
       scale_width="1"
       end_linecap_type="zerowidth" />
    <inkscape:path-effect
       effect="powerstroke"
       id="path-effect992"
       is_visible="true"
       lpeversion="1"
       offset_points="1.2763637,-1.6946648"
       sort_points="true"
       interpolator_type="CubicBezierJohan"
       interpolator_beta="0.2"
       start_linecap_type="zerowidth"
       linejoin_type="extrp_arc"
       miter_limit="4"
       scale_width="1"
       end_linecap_type="zerowidth" />
    <inkscape:path-effect
       effect="skeletal"
       id="path-effect963"
       is_visible="true"
       lpeversion="1"
       pattern="M 0,5 C 0,2.24 2.24,0 5,0 7.76,0 10,2.24 10,5 10,7.76 7.76,10 5,10 2.24,10 0,7.76 0,5 Z"
       copytype="single_stretched"
       prop_scale="-1.34319"
       scale_y_rel="false"
       spacing="0"
       normal_offset="0"
       tang_offset="0"
       prop_units="false"
       vertical_pattern="false"
       hide_knot="false"
       fuse_tolerance="0" />
    <inkscape:path-effect
       effect="skeletal"
       id="path-effect929"
       is_visible="true"
       lpeversion="1"
       pattern="M 0,5 C 0,2.24 2.24,0 5,0 7.76,0 10,2.24 10,5 10,7.76 7.76,10 5,10 2.24,10 0,7.76 0,5 Z"
       copytype="single_stretched"
       prop_scale="-1.3431878"
       scale_y_rel="false"
       spacing="0"
       normal_offset="0"
       tang_offset="0"
       prop_units="false"
       vertical_pattern="false"
       hide_knot="false"
       fuse_tolerance="0" />
    <inkscape:path-effect
       effect="skeletal"
       id="path-effect925"
       is_visible="true"
       lpeversion="1"
       pattern="M 0,5 C 0,2.24 2.24,0 5,0 7.76,0 10,2.24 10,5 10,7.76 7.76,10 5,10 2.24,10 0,7.76 0,5 Z"
       copytype="single_stretched"
       prop_scale="0.070198"
       scale_y_rel="false"
       spacing="0"
       normal_offset="0"
       tang_offset="0"
       prop_units="false"
       vertical_pattern="false"
       hide_knot="false"
       fuse_tolerance="0" />
    <inkscape:path-effect
       effect="skeletal"
       id="path-effect869"
       is_visible="true"
       lpeversion="1"
       pattern="M 0,5 C 0,2.24 2.24,0 5,0 7.76,0 10,2.24 10,5 10,7.76 7.76,10 5,10 2.24,10 0,7.76 0,5 Z"
       copytype="single_stretched"
       prop_scale="0.070198"
       scale_y_rel="false"
       spacing="0"
       normal_offset="0"
       tang_offset="0"
       prop_units="false"
       vertical_pattern="false"
       hide_knot="false"
       fuse_tolerance="0" />
    <clipPath
       clipPathUnits="userSpaceOnUse"
       id="clipPath1066">
      <path
         id="path1068"
         style="fill:#000000;fill-opacity:1;stroke:none;stroke-width:0.264583px;stroke-linecap:butt;stroke-linejoin:miter;stroke-opacity:1"
         d="m -491.46669,-21.771443 c -36.8935,0.752679 -73.41526,7.882533 -108.66157,18.6417151 -30.48394,9.2536179 -60.35625,20.6741909 -88.61579,35.4598479 -7.93604,4.199739 -15.86931,8.536043 -23.41599,13.44336 -4.28186,2.853902 -8.46439,5.922299 -12.12175,9.552731 -1.62156,1.95235 -2.61403,4.477121 -2.87981,6.881191 -0.35242,3.006606 0.37566,6.02026 2.18816,8.458266 3.39545,4.734282 10.2857,6.533044 15.54723,4.001619 5.27648,-1.996175 10.24824,-4.690467 15.42447,-6.919521 20.74045,-9.59731 41.89685,-18.33509 63.5807,-25.57517 25.26932,-8.64194 51.11681,-15.612594 77.32421,-20.757797 27.02415,-5.134005 54.6911,-7.669048 82.17567,-5.562291 18.86828,1.410169 37.81573,5.014482 55.07837,12.992092 9.1431,4.271798 17.85302,9.9416 24.35267,17.760844 4.51781,5.460444 7.70578,12.174979 8.28905,19.293036 0.56817,6.417479 -0.091,13.072734 -2.80662,18.974678 -3.02834,6.850057 -8.29739,12.425926 -14.05321,17.091052 -8.52461,6.7638 -18.28742,11.76689 -28.25761,16.03137 -10.96108,4.62859 -22.30744,8.28051 -33.74077,11.5428 -24.91561,7.04066 -50.38162,11.85018 -75.81255,16.61076 -35.33068,6.51031 -70.85528,12.12265 -105.78563,20.62893 -10.01866,2.49811 -20.04528,5.23258 -29.55491,9.34379 -3.83622,1.92124 -7.07337,5.55409 -7.55208,9.93777 -0.69276,5.12681 2.03586,10.59869 6.8431,12.69726 3.70891,1.85114 8.03688,1.54218 11.97986,0.73782 14.28123,-2.10435 28.49555,-4.6339 42.79173,-6.6761 40.86211,-6.14643 81.95907,-10.95534 122.5991,-18.36062 23.28574,-4.31989 46.45179,-9.5052 68.90406,-17.13572 13.42512,-4.64618 26.50146,-10.20804 38.66288,-17.58773 11.60547,-7.02589 22.2745,-15.86833 30.1975,-26.9734 7.93536,-11.07946 12.63936,-24.462744 13.42472,-38.014676 0.44355,-7.598685 -0.17769,-15.294309 -2.03393,-22.724991 -1.32503,-5.364885 -3.263,-10.630937 -5.76927,-15.570793 -3.47366,-6.915494 -8.18845,-13.164698 -13.52886,-18.782225 -12.09185,-12.6190419 -27.69653,-21.3918484 -43.99441,-27.425547 -13.68105,-5.045845 -28.01728,-8.154728 -42.46621,-10.010444 -12.69381,-1.579309 -25.50382,-2.128015 -38.31251,-2.003907 z" />
    </clipPath>
    <clipPath
       clipPathUnits="userSpaceOnUse"
       id="clipPath1066-6">
      <path
         id="path1068-7"
         style="fill:#000000;fill-opacity:1;stroke:none;stroke-width:0.264583px;stroke-linecap:butt;stroke-linejoin:miter;stroke-opacity:1"
         d="m -491.46669,-21.771443 c -36.8935,0.752679 -73.41526,7.882533 -108.66157,18.6417151 -30.48394,9.2536179 -60.35625,20.6741909 -88.61579,35.4598479 -7.93604,4.199739 -15.86931,8.536043 -23.41599,13.44336 -4.28186,2.853902 -8.46439,5.922299 -12.12175,9.552731 -1.62156,1.95235 -2.61403,4.477121 -2.87981,6.881191 -0.35242,3.006606 0.37566,6.02026 2.18816,8.458266 3.39545,4.734282 10.2857,6.533044 15.54723,4.001619 5.27648,-1.996175 10.24824,-4.690467 15.42447,-6.919521 20.74045,-9.59731 41.89685,-18.33509 63.5807,-25.57517 25.26932,-8.64194 51.11681,-15.612594 77.32421,-20.757797 27.02415,-5.134005 54.6911,-7.669048 82.17567,-5.562291 18.86828,1.410169 37.81573,5.014482 55.07837,12.992092 9.1431,4.271798 17.85302,9.9416 24.35267,17.760844 4.51781,5.460444 7.70578,12.174979 8.28905,19.293036 0.56817,6.417479 -0.091,13.072734 -2.80662,18.974678 -3.02834,6.850057 -8.29739,12.425926 -14.05321,17.091052 -8.52461,6.7638 -18.28742,11.76689 -28.25761,16.03137 -10.96108,4.62859 -22.30744,8.28051 -33.74077,11.5428 -24.91561,7.04066 -50.38162,11.85018 -75.81255,16.61076 -35.33068,6.51031 -70.85528,12.12265 -105.78563,20.62893 -10.01866,2.49811 -20.04528,5.23258 -29.55491,9.34379 -3.83622,1.92124 -7.07337,5.55409 -7.55208,9.93777 -0.69276,5.12681 2.03586,10.59869 6.8431,12.69726 3.70891,1.85114 8.03688,1.54218 11.97986,0.73782 14.28123,-2.10435 28.49555,-4.6339 42.79173,-6.6761 40.86211,-6.14643 81.95907,-10.95534 122.5991,-18.36062 23.28574,-4.31989 46.45179,-9.5052 68.90406,-17.13572 13.42512,-4.64618 26.50146,-10.20804 38.66288,-17.58773 11.60547,-7.02589 22.2745,-15.86833 30.1975,-26.9734 7.93536,-11.07946 12.63936,-24.462744 13.42472,-38.014676 0.44355,-7.598685 -0.17769,-15.294309 -2.03393,-22.724991 -1.32503,-5.364885 -3.263,-10.630937 -5.76927,-15.570793 -3.47366,-6.915494 -8.18845,-13.164698 -13.52886,-18.782225 -12.09185,-12.6190419 -27.69653,-21.3918484 -43.99441,-27.425547 -13.68105,-5.045845 -28.01728,-8.154728 -42.46621,-10.010444 -12.69381,-1.579309 -25.50382,-2.128015 -38.31251,-2.003907 z" />
    </clipPath>
    <linearGradient
       inkscape:collect="always"
       xlink:href="#linearGradient1258"
       id="linearGradient1246"
       x1="-126.94427"
       y1="856.87378"
       x2="95.208199"
       y2="524.70294"
       gradientUnits="userSpaceOnUse"
       gradientTransform="matrix(1.8418387,0,0,1.8418387,-159.30093,-248.20672)" />
    <linearGradient
       inkscape:collect="always"
       xlink:href="#linearGradient1258"
       id="linearGradient1308"
       gradientUnits="userSpaceOnUse"
       gradientTransform="matrix(1.8418387,0,0,1.8418387,-159.30093,-248.20672)"
       x1="-126.94427"
       y1="856.87378"
       x2="95.208199"
       y2="524.70294" />
    <linearGradient
       inkscape:collect="always"
       xlink:href="#linearGradient1258"
       id="linearGradient1340"
       x1="446.13263"
       y1="830.79376"
       x2="347.96249"
       y2="848.10376"
       gradientUnits="userSpaceOnUse" />
    <linearGradient
       inkscape:collect="always"
       xlink:href="#linearGradient1258"
       id="linearGradient1366"
       x1="744.80774"
       y1="855.80927"
       x2="499.05139"
       y2="899.1427"
       gradientUnits="userSpaceOnUse" />
    <linearGradient
       inkscape:collect="always"
       xlink:href="#linearGradient1258"
       id="linearGradient1368"
       x1="764.39996"
       y1="909.42224"
       x2="496.11124"
       y2="956.72882"
       gradientUnits="userSpaceOnUse" />
    <linearGradient
       inkscape:collect="always"
       xlink:href="#linearGradient1258"
       id="linearGradient1386"
       x1="1132.0322"
       y1="910.06055"
       x2="1088.5253"
       y2="917.73199"
       gradientUnits="userSpaceOnUse" />
    <linearGradient
       inkscape:collect="always"
       xlink:href="#linearGradient1258"
       id="linearGradient1388"
       x1="1151.257"
       y1="771.20068"
       x2="1050.5371"
       y2="788.96033"
       gradientUnits="userSpaceOnUse" />
    <linearGradient
       inkscape:collect="always"
       xlink:href="#linearGradient1258"
       id="linearGradient1396"
       x1="1039.441"
       y1="861.81848"
       x2="806.41241"
       y2="902.90771"
       gradientUnits="userSpaceOnUse" />
    <linearGradient
       inkscape:collect="always"
       xlink:href="#linearGradient1258"
       id="linearGradient1398"
       x1="836.12549"
       y1="877.36798"
       x2="788.08795"
       y2="885.83832"
       gradientUnits="userSpaceOnUse" />
    <linearGradient
       inkscape:collect="always"
       xlink:href="#linearGradient1258"
       id="linearGradient1438"
       x1="1064.2637"
       y1="919.01483"
       x2="-286.23355"
       y2="1157.1439"
       gradientUnits="userSpaceOnUse" />
    <linearGradient
       inkscape:collect="always"
       xlink:href="#linearGradient1258"
       id="linearGradient2034"
       x1="255.58951"
       y1="1208.3871"
       x2="157.98294"
       y2="1225.5978"
       gradientUnits="userSpaceOnUse" />
    <filter
       inkscape:collect="always"
       style="color-interpolation-filters:sRGB"
       id="filter2660"
       x="-0.0042046658"
       width="1.0084093"
       y="-0.041328274"
       height="1.0826565">
      <feGaussianBlur
         inkscape:collect="always"
         stdDeviation="4.1006104"
         id="feGaussianBlur2662" />
    </filter>
    <filter
       inkscape:collect="always"
       style="color-interpolation-filters:sRGB"
       id="filter2664"
       x="-0.10082789"
       width="1.2016557"
       y="-0.024460031"
       height="1.0489202">
      <feGaussianBlur
         inkscape:collect="always"
         stdDeviation="4.1006104"
         id="feGaussianBlur2666" />
    </filter>
  </defs>
  <sodipodi:namedview
     id="base"
     pagecolor="#ffffff"
     bordercolor="#666666"
     borderopacity="1.0"
     inkscape:pageopacity="0.0"
     inkscape:pageshadow="2"
     inkscape:zoom="0.088427152"
     inkscape:cx="3885.2612"
     inkscape:cy="1652.1209"
     inkscape:document-units="mm"
     inkscape:current-layer="layer1"
     inkscape:document-rotation="0"
     showgrid="true"
     inkscape:window-width="1920"
     inkscape:window-height="1017"
     inkscape:window-x="-8"
     inkscape:window-y="-8"
     inkscape:window-maximized="1" />
  <metadata
     id="metadata5">
    <rdf:RDF>
      <cc:Work
         rdf:about="">
        <dc:format>image/svg+xml</dc:format>
        <dc:type
           rdf:resource="http://purl.org/dc/dcmitype/StillImage" />
        <dc:title></dc:title>
      </cc:Work>
    </rdf:RDF>
  </metadata>
  <g
     inkscape:label="Layer 1"
     inkscape:groupmode="layer"
     id="layer1"
     transform="translate(791.12933,-491.89655)">
    <path
       style="opacity:0.703;fill:url(#linearGradient1438);fill-opacity:1;stroke:none;stroke-width:0.264583px;stroke-linecap:butt;stroke-linejoin:miter;stroke-opacity:1;filter:url(#filter2660)"
       d="m -781.2871,1019.0337 c -0.56367,-6.2308 309.50004,-43.29673 788.9229113,-72.33712 C 201.81415,934.93396 427.21087,924.55775 667.88953,920.60381 c 87.97356,-1.44518 178.75292,-2.03175 271.1455,-1.22332 67.66837,0.59166 136.66987,1.91574 206.27717,4.487 6.6895,0.24711 13.3708,0.50522 20.0443,0.77468 59.958,2.41898 118.8973,5.677 177.4905,10.79588 23.2045,2.02715 46.2719,4.35321 69.2638,7.20516 18.6333,2.30881 37.2236,4.9563 55.7765,8.31093 7.5806,1.37091 15.1786,2.87352 22.7828,4.57788 0,0 2e-4,3e-5 2e-4,3e-5 6.4318,1.43974 12.9165,3.04246 19.4256,4.90591 5.3053,1.51298 10.7325,3.25231 16.218,5.36014 4.2401,1.60614 8.7473,3.60514 13.3747,6.20762 1.8589,1.04754 3.8129,2.29179 5.8272,3.76571 0,0 2e-4,1.4e-4 2e-4,1.4e-4 1.6997,1.22755 3.503,2.76936 5.3562,4.65748 1.5784,1.57614 3.1732,3.62927 4.7107,6.17411 1.367,2.24801 2.4499,4.99024 3.1825,8.19843 0.6438,3.10139 0.725,6.24141 0.244,9.36071 -0.5683,3.2588 -1.5107,6.0592 -2.759,8.3719 -1.4153,2.6421 -2.9122,4.7868 -4.4139,6.4481 -1.7782,2.0081 -3.5232,3.66 -5.1778,4.9878 0,0 -2e-4,2e-4 -2e-4,2e-4 -4.2424,3.3956 -8.3741,5.9187 -12.1387,7.8256 -5.137,2.6735 -10.2084,4.8543 -15.0926,6.7254 -6.2757,2.4191 -12.5197,4.5041 -18.6626,6.381 -7.5637,2.3152 -15.1086,4.3756 -22.5874,6.2715 -19.3414,4.9026 -38.6839,8.9048 -57.7365,12.4835 -25.2701,4.7514 -50.467,8.8146 -75.3057,12.4887 -31.5082,4.6618 -62.8207,8.7405 -93.5992,12.4425 -38.0337,4.5752 -75.6792,8.619 -112.5026,12.2849 -98.8161,9.8373 -195.31216,17.3711 -283.95871,23.4976 -134.50435,9.2967 -260.62569,15.9101 -366.16132,20.6408 -282.3162,12.6551 -452.633857,14.4264 -452.826002,9.8086 -0.192145,-4.6178 169.784022,-14.8547 451.457312,-34.0469 104.34247,-7.1096 232.06327,-16.1216 365.19036,-27.1698 88.2447,-7.3239 184.62296,-15.9604 282.76236,-26.6524 36.6117,-3.9887 74.0068,-8.3281 111.7153,-13.1626 30.5219,-3.9135 61.4999,-8.1747 92.574,-12.9839 24.509,-3.7941 49.2298,-7.9345 73.8603,-12.7149 18.6043,-3.6145 37.1947,-7.5562 55.4599,-12.2952 7.0483,-1.8285 14.014,-3.7641 20.8464,-5.8954 5.5656,-1.7395 10.9795,-3.5662 16.168,-5.604 4.0741,-1.6117 7.8716,-3.2363 11.2643,-5.05236 2.5487,-1.41617 4.5949,-2.57349 5.8741,-3.71955 0,0 0,-5e-5 0,-5e-5 0.4583,-0.41012 0.7245,-0.62997 0.7405,-0.69004 -0.01,-0.0596 -0.1609,0.22378 -0.5335,0.83858 -0.3538,0.57348 -0.6311,1.50697 -0.8992,2.83214 -0.1998,1.30899 -0.1675,2.58768 0.099,3.89538 0.333,1.3101 0.6601,2.2381 1.0485,2.8101 0.4072,0.609 0.5843,0.9033 0.6044,0.8661 -0,-0.032 -0.2547,-0.2103 -0.7064,-0.5674 0,0 -10e-5,0 -10e-5,0 -0.5386,-0.4065 -1.275,-0.8527 -2.1756,-1.3727 -2.3144,-1.3409 -5.1564,-2.5347 -8.3861,-3.7969 -4.1107,-1.57697 -8.4998,-2.94902 -13.1085,-4.26048 -5.6243,-1.59324 -11.4116,-2.99546 -17.3367,-4.30554 0,0 -1e-4,-3e-5 -1e-4,-3e-5 -6.9919,-1.5437 -14.0902,-2.9199 -21.2861,-4.19925 -17.6411,-3.13705 -35.5556,-5.62653 -53.7611,-7.83922 -22.433,-2.72339 -45.0572,-4.94888 -67.9425,-6.90455 -57.8178,-4.94069 -116.1662,-8.09615 -175.7779,-10.49445 -6.6308,-0.26655 -13.2702,-0.52248 -19.9185,-0.76813 -69.1702,-2.5558 -137.8451,-3.94461 -205.25163,-4.67542 -92.01794,-0.99706 -182.53778,-0.73169 -270.26867,0.27212 C 428.62077,959.90703 203.01626,968.1696 9.2608546,977.12607 -469.80173,999.27222 -780.72343,1025.2645 -781.2871,1019.0337 Z"
       id="path1420"
       inkscape:path-effect="#path-effect1422"
       inkscape:original-d="m -781.2871,1019.0337 c 2249.8327,-203.53028 3466.7505,25.5481 817.374272,135.7867"
       sodipodi:nodetypes="cc" />
    <path
       id="path1208"
       style="fill:url(#linearGradient1308);fill-opacity:1;stroke:none;stroke-width:0.487;stroke-linecap:butt;stroke-linejoin:miter;stroke-miterlimit:4;stroke-dasharray:none;stroke-opacity:1"
       d="m 37.16564,491.898 c -62.577997,0.15582 -119.297586,12.74704 -165.8629,28.05421 -77.21199,25.11758 -137.24355,59.51602 -173.68005,85.5922 -37.50207,26.83881 -54.81925,47.4451 -50.14633,56.11317 4.67291,8.66807 30.8801,4.51583 73.57769,-6.59501 38.6137,-10.04809 106.08836,-30.08251 173.70666,-41.52211 27.352874,-4.53346 57.319149,-8.49436 87.898404,-9.79875 l 75.48127,-111.4249 C 51.081077,492.0166 44.087398,491.88077 37.16564,491.898 Z m 99.44941,12.10496 -116.489418,99.60645 c 12.392403,0.48619 24.752523,1.53991 36.949728,3.30465 33.925195,5.40786 67.92384,14.02441 91.27252,31.77573 8.61225,6.29649 16.11883,13.02791 21.08038,20.15903 2.77177,3.93012 5.14917,7.99196 6.85864,11.97551 0.94689,2.20663 1.68412,4.37764 2.17294,6.48364 1.53145,5.64859 1.82813,12.07161 0.99084,18.087 -0.74648,6.75632 -3.71384,14.34898 -7.7505,21.91227 -10.34526,21.39697 -35.36547,39.49375 -61.54887,55.28127 -44.020625,25.21275 -97.607258,38.09958 -144.066774,46.76939 -65.166979,11.82916 -134.286776,15.55246 -172.573116,18.97311 -42.7477,3.81922 -68.09412,8.69003 -69.56967,18.27735 -1.4755,9.58732 21.01854,22.93825 64.09592,35.49439 41.71891,12.1602 108.23812,24.48855 187.467743,22.273 54.015454,-1.26334 119.974402,-10.34171 185.739267,-40.44756 40.20868,-17.67465 82.32353,-47.97675 113.04679,-95.69647 11.42191,-18.46635 19.89728,-39.93399 24.05952,-63.74562 3.6553,-21.96414 2.8464,-44.71308 -2.74404,-67.02076 -2.09868,-8.05101 -4.72891,-15.8519 -7.85517,-23.3628 -5.64744,-13.56799 -12.85285,-26.04106 -21.30595,-37.23903 -14.86754,-19.59248 -32.18359,-35.30969 -50.48332,-47.35854 -25.92638,-16.69231 -52.8448,-28.09786 -79.34746,-35.50201 z" />
    <path
       id="path1212"
       style="fill:url(#linearGradient1246);fill-opacity:1;stroke:none;stroke-width:0.487;stroke-linecap:butt;stroke-linejoin:miter;stroke-miterlimit:4;stroke-dasharray:none;stroke-opacity:1"
       d="m -122.0715,683.80117 c -12.33647,-0.11457 -35.60601,15.58649 -60.87024,48.42643 -30.37739,39.48635 -59.62252,99.23351 -73.36066,174.43003 -1.05719,5.73995 -2.02548,11.53676 -2.90106,17.38744 -9.08066,60.67554 -6.65395,116.43383 1.00891,161.44943 l 85.24572,-110.95381 c 1.45237,-11.94596 3.10218,-24.19239 5.01026,-36.72791 0.77811,-5.1119 1.58507,-10.17578 2.41946,-15.19639 11.39885,-67.90998 25.17045,-116.08613 38.56109,-160.9364 12.2043,-40.87678 20.64127,-68.70902 10.55924,-76.19704 -1.47791,-1.09764 -3.38818,-1.66058 -5.67272,-1.68178 z M -179.83793,1044.3579 -254,1106.887 c 1.16518,5.2188 2.39468,10.2569 3.68156,15.0899 13.12976,49.3114 31.17502,76.5337 43.32291,74.3153 12.53694,-2.2895 17.83422,-33.4337 21.74094,-80.5164 1.78656,-21.5312 3.33173,-45.4432 5.41666,-71.4179 z" />
    <path
       style="fill:url(#linearGradient1340);fill-opacity:1;stroke:none;stroke-width:0.257296px;stroke-linecap:butt;stroke-linejoin:miter;stroke-opacity:1"
       d="m 443.37828,663.48889 c -3.69334,-2.1726 -11.21546,2.38818 -20.5043,13.65382 -4.78917,5.80739 -9.8705,13.17253 -15.14521,22.13863 -8.91477,15.14815 -17.88981,33.96066 -26.4275,56.4297 -7.42814,19.53191 -14.35491,41.41423 -20.10107,65.18247 -2.34637,9.68582 -4.50022,19.70915 -6.36548,30.00612 -2.20356,12.1646 -3.90563,24.16641 -5.08497,36.00828 -2.09719,20.52557 -2.5025,40.241 -0.38771,59.51945 0.9283,8.5805 2.49725,17.09309 4.93319,25.45774 0,1e-5 0,1e-5 10e-6,2e-5 2.06348,7.37976 5.22991,14.85651 9.6792,21.96777 2.04962,3.24318 4.53385,6.38251 7.41648,9.32151 2.79763,2.8546 6.03849,5.351 9.60726,7.4297 3.70421,2.1248 7.57598,3.5747 11.45949,4.4256 4.3589,0.9171 8.42742,1.0856 12.11625,0.7356 10.23043,-1.1652 17.70539,-4.8416 22.82082,-8.3966 16.15606,-10.90492 19.96817,-20.931 17.22488,-24.78842 -3.25472,-4.57656 -12.44036,-0.88218 -27.11541,0.65185 -4.45617,0.37753 -9.35792,0.65908 -12.34989,-0.70571 -1.00158,-0.43104 -1.81779,-0.91484 -2.25006,-1.46971 -0.37404,-0.45715 -0.69293,-0.9813 -0.87784,-1.49061 -0.21873,-0.48716 -0.46701,-1.16833 -0.78892,-1.95549 -0.36002,-0.85134 -0.69696,-1.94356 -1.12635,-3.29037 -1.06681,-3.11016 -1.56158,-6.9799 -2.19767,-11.96776 0,0 0,-10e-6 0,-10e-6 -0.61182,-5.59711 -0.69146,-11.60918 -0.58402,-18.47935 0.26562,-15.70569 2.16309,-31.71876 4.84696,-50.61149 1.55069,-10.67977 3.35375,-21.54038 5.39816,-32.79602 1.72447,-9.49418 3.55332,-18.89866 5.39503,-28.08306 4.55579,-22.6656 9.1471,-43.48011 13.53174,-62.97782 4.97749,-22.08715 9.46752,-41.49618 12.97468,-57.50164 2.03534,-9.2905 3.8208,-17.98724 4.96321,-24.64877 2.27297,-13.15361 2.57161,-21.62857 -1.06096,-23.76543 z"
       id="path1264"
       inkscape:path-effect="#path-effect1266"
       inkscape:original-d="m 443.37828,663.48889 c -50.33772,85.57208 -129.84991,412.31981 1.24133,319.09139"
       sodipodi:nodetypes="cc" />
    <path
       style="fill:url(#linearGradient1366);fill-opacity:1;stroke:none;stroke-width:0.264583px;stroke-linecap:butt;stroke-linejoin:miter;stroke-opacity:1"
       d="m 499.26754,798.9161 c 2.53594,5.36778 27.23016,-1.55655 65.73054,-10.8603 0,0 1e-5,0 1e-5,0 13.79147,-3.32289 30.52856,-7.14312 47.33285,-9.23046 11.10908,-1.34789 22.82304,-2.20102 33.91762,-1.17191 7.91228,0.77666 15.63656,2.20881 22.0882,5.09425 5.09874,2.21564 9.88675,5.2747 13.64665,9.06874 3.51444,3.38874 6.56045,7.83209 9.19286,12.88757 0.0978,0.18774 0.19485,0.37614 0.29127,0.56515 2.89593,5.68951 4.97834,12.24392 6.66793,19.11903 1.8642,7.71455 2.99219,15.8593 3.7817,24.05467 1.79382,18.60371 1.48619,38.48755 1.17729,56.02888 0,0 0,2e-5 0,2e-5 -0.18975,9.88256 -0.4438,19.45385 -0.56759,28.5937 -0.13117,9.5739 -0.13128,18.29846 0.1942,26.91776 0.31532,8.57188 0.93591,16.34419 2.14773,23.83757 1.08654,7.1033 2.80773,13.62393 5.52182,19.55663 1.26781,2.801 2.88563,5.4318 4.78834,7.762 1.9342,2.4028 4.30539,4.2897 6.75768,5.611 3.0557,1.5866 5.95962,1.9976 8.24018,1.8784 6.093,-0.4023 7.9149,-3.1166 7.67776,-4.8902 -0.23713,-1.7736 -3.10573,-2.9537 -5.39386,-5.2447 -0.80722,-0.8137 -1.5788,-1.8193 -1.91705,-2.8609 -0.35435,-0.8732 -0.54396,-1.8736 -0.78849,-3.1591 -0.25687,-1.3322 -0.33284,-2.76626 -0.45005,-4.68475 -0.28264,-4.39518 0.17213,-8.52771 0.7551,-14.94994 0.6964,-6.62604 1.67444,-12.87537 2.97236,-21.12555 1.36745,-8.5861 2.81624,-17.08253 4.18369,-25.66863 1.41179,-8.84608 2.90044,-18.68964 4.16028,-28.78269 0,0 0,-10e-6 0,-10e-6 2.30464,-18.18842 4.16865,-39.43338 3.14227,-61.76109 -0.45128,-9.77795 -1.57761,-20.1024 -3.83416,-30.69234 -1.99014,-9.47024 -5.13135,-19.3313 -9.91547,-29.08507 -0.16238,-0.33139 -0.32704,-0.66231 -0.49397,-0.99273 -4.49505,-8.89724 -10.51714,-17.18526 -17.99932,-24.38244 -8.41657,-7.92752 -18.07356,-13.76787 -28.15127,-17.5497 -12.4158,-4.56987 -24.68565,-6.36834 -35.9567,-6.48151 -15.6378,-0.20968 -30.10919,2.03993 -42.80075,5.12827 -19.42852,4.67579 -36.62044,11.37816 -50.48546,17.77889 0,0 -10e-6,10e-6 -10e-6,10e-6 -38.29688,17.64309 -58.15012,34.3237 -55.61418,39.69148 z"
       id="path1268"
       inkscape:path-effect="#path-effect1270"
       inkscape:original-d="m 499.26754,798.9161 c 357.11141,-168.7131 160.5608,225.2548 238.58704,214.8225"
       sodipodi:nodetypes="cc" />
    <path
       style="fill:url(#linearGradient1368);fill-opacity:1;stroke:none;stroke-width:0.264583px;stroke-linecap:butt;stroke-linejoin:miter;stroke-opacity:1"
       d="m 764.12264,915.6384 c 1.93554,-2.99683 -6.25697,-12.93687 -24.6764,-25.56559 -18.01965,-12.35462 -47.69303,-27.95232 -86.33731,-35.67301 -16.52089,-3.30161 -35.20988,-5.09966 -55.05953,-3.55452 0,0 -2e-5,0 -2e-5,0 -15.18849,1.11517 -31.66711,4.57893 -47.80024,12.09959 -14.09933,6.42575 -28.41333,16.41376 -39.78273,31.1319 -6.50396,8.44904 -11.24652,18.72905 -13.272,30.19596 -0.69366,3.92707 -1.06307,7.96361 -1.08318,12.07918 0.5253,15.9767 6.42457,30.23566 15.52687,41.15986 11.45386,13.5696 25.57765,22.3754 39.41388,27.57203 16.57538,6.4109 33.12344,9.2574 48.22926,10.2478 0,0 2e-5,0 2e-5,0 19.70154,1.379 38.18916,-0.024 54.66124,-2.8796 21.65925,-3.7273 40.06618,-9.9979 54.89126,-16.96636 33.50627,-15.71199 46.15945,-33.49299 43.88701,-36.60564 -2.70963,-3.71149 -20.66908,5.77689 -52.18699,13.47644 -14.31477,3.48326 -31.10203,6.42095 -50.41671,7.49995 -14.66621,0.79976 -30.65526,0.53756 -46.96854,-1.81714 0,0 -2e-5,0 -2e-5,0 -12.59463,-1.88096 -25.47089,-4.73832 -36.81029,-9.88159 -9.11934,-4.30482 -17.66178,-9.59884 -22.60133,-16.43248 -3.65972,-4.96047 -6.29862,-10.88398 -6.06934,-15.95616 -0.0965,-1.32722 0.005,-2.72579 0.27743,-4.17066 0.79291,-4.21135 3.01832,-8.74525 5.82399,-12.87456 5.32236,-7.83251 14.51604,-14.11654 24.36043,-19.48561 10.12779,-5.41558 22.12146,-8.39167 34.03854,-10.19816 0,0 2e-5,0 2e-5,0 15.55888,-2.27135 31.32715,-1.99438 45.87057,-0.65899 33.84657,3.11462 63.26674,12.7507 82.47847,19.30601 19.86076,6.77678 31.6701,10.94818 33.60564,7.95135 z"
       id="path1272"
       inkscape:path-effect="#path-effect1274"
       inkscape:original-d="M 764.12264,915.6384 C 688.15446,866.57339 605.60486,858.22443 559.18927,881.09153 501.50191,909.51177 504.24168,964.07872 558.6951,986.62072 606.98868,1006.6127 694.6188,1001.2982 752.72076,958.88"
       sodipodi:nodetypes="cssc" />
    <path
       style="fill:url(#linearGradient1398);fill-opacity:1;stroke:none;stroke-width:0.264583px;stroke-linecap:butt;stroke-linejoin:miter;stroke-opacity:1"
       d="m 833.22091,742.47595 c -4.4202,-1.56293 -14.45251,11.78749 -24.1722,36.51239 -9.83863,25.02745 -18.5855,60.03177 -20.5516,101.02418 -0.40201,8.38178 -0.50032,16.59436 -0.32771,24.59992 0.55473,26.0264 3.96146,49.00814 8.81529,68.01797 8.17138,32.08799 19.87354,49.81069 25.01583,48.11139 5.0812,-1.6792 3.26961,-21.89476 1.8531,-52.20487 -0.85839,-18.83159 -1.45933,-39.25667 -0.95811,-63.9682 0.15329,-7.45451 0.40735,-15.06886 0.78166,-22.86842 1.88007,-39.17622 6.09487,-69.94117 9.47444,-96.4596 3.18053,-24.95659 4.65169,-41.14448 0.0693,-42.76476 z"
       id="path1276"
       inkscape:path-effect="#path-effect1278"
       inkscape:original-d="M 833.22091,742.47595 C 792.3196,858.15067 804.02647,966.35164 822.00052,1020.7418"
       sodipodi:nodetypes="cc" />
    <path
       style="fill:url(#linearGradient1396);fill-opacity:1;stroke:none;stroke-width:0.264583px;stroke-linecap:butt;stroke-linejoin:miter;stroke-opacity:1"
       d="m 810.03209,882.35687 c 3.49541,0.86407 8.42888,-6.64952 16.62414,-18.67446 8.31105,-12.19485 19.90027,-28.40666 37.81098,-45.10165 0,0 10e-6,-1e-5 10e-6,-1e-5 7.61391,-7.00665 16.25795,-14.04175 25.67075,-19.48825 6.82391,-3.68949 13.16799,-7.02452 18.20883,-7.26811 2.63812,-0.25568 4.99769,-0.28565 6.71723,0.21081 1.48145,0.3354 3.03825,1.02546 4.43382,1.93731 1.53856,0.92328 3.18602,2.51705 5.01047,4.50413 2.01706,2.23341 3.92859,5.10346 5.92803,8.43679 2.20273,3.667 4.17922,7.69536 6.05257,12.05207 2.16534,5.0358 4.16413,10.44528 6.14053,15.97268 4.32889,12.36253 8.13947,25.5963 11.78108,38.12214 4.39727,15.17174 8.29285,28.73316 12.85173,42.73973 0,0 0,10e-6 0,10e-6 5.05739,15.56922 10.24485,29.44039 16.21948,42.36651 6.89636,15.00669 14.27526,27.05816 22.24436,36.71441 7.8215,9.58012 15.6655,15.52642 21.8042,18.56212 6.1101,3.0216 10.13,3.0398 11.3979,1.3145 1.3371,-1.8194 -0.08,-5.2801 -2.6391,-10.4945 -3.0855,-6.28727 -5.7664,-11.35015 -10.0828,-21.91862 -4.12,-10.23626 -7.4076,-20.70039 -11.3613,-35.59853 -3.3724,-12.8545 -6.1028,-25.36136 -9.4659,-41.19393 0,-10e-6 0,-10e-6 0,-2e-5 -2.6727,-12.63215 -5.96033,-28.71775 -9.31203,-43.29263 -2.99141,-13.06575 -6.54027,-27.25105 -11.25925,-41.60643 -2.0295,-6.30093 -4.41669,-12.874 -7.34739,-19.53605 -2.52932,-5.74963 -5.41977,-11.46621 -8.77482,-17.08835 -3.14003,-5.25665 -6.95862,-10.49412 -11.58223,-15.49061 -4.24697,-4.62303 -9.41716,-8.84076 -15.46793,-12.36253 -6.07242,-3.46212 -12.69308,-5.73422 -19.56249,-6.77168 -7.67774,-1.0479 -14.87685,-0.6542 -21.34683,0.75647 -13.89095,3.22714 -24.70085,9.38019 -32.79359,15.64306 -12.19565,8.97094 -21.93931,19.13584 -29.63512,28.94489 0,0 0,10e-6 0,10e-6 -18.15779,22.89162 -26.86016,45.3662 -30.1562,61.33746 -3.32338,16.10375 -1.39229,25.45966 1.89087,26.27126 z"
       id="path1280"
       inkscape:path-effect="#path-effect1282"
       inkscape:original-d="m 810.03209,882.35687 c 14.56073,-58.9023 64.20509,-105.82264 94.50438,-111.36458 80.74979,-14.76969 62.99251,191.29474 134.39173,243.76531"
       sodipodi:nodetypes="csc" />
    <path
       style="fill:url(#linearGradient1386);fill-opacity:1;stroke:none;stroke-width:0.264583px;stroke-linecap:butt;stroke-linejoin:miter;stroke-opacity:1"
       d="m 1112.1124,811.75926 c -4.19,-1.01433 -11.3575,9.34259 -16.7767,28.45991 -5.5241,19.48725 -8.5478,45.88829 -5.7507,76.25798 0.063,0.68582 0.1289,1.36973 0.1972,2.05166 2.9095,29.67324 10.451,54.68665 18.7788,72.41837 8.2156,17.49292 16.4943,26.54372 20.4772,24.98072 4.1727,-1.6375 3.4186,-13.4986 1.159,-31.37428 -2.6761,-21.17062 -5.542,-38.86897 -8.3639,-69.09529 6e-4,0.007 -0.1709,-1.89676 -0.1703,-1.89016 -2.702,-30.31081 -3.0807,-49.26416 -3.765,-70.44844 -0.5882,-18.20704 -1.3697,-30.29145 -5.7856,-31.36047 z"
       id="path1284"
       inkscape:path-effect="#path-effect1286"
       inkscape:original-d="m 1112.1124,811.75926 c -16.2824,67.2599 -6.1719,145.30872 16.9258,204.16864"
       sodipodi:nodetypes="cc" />
    <path
       style="fill:url(#linearGradient1388);fill-opacity:1;stroke:none;stroke-width:0.264583px;stroke-linecap:butt;stroke-linejoin:miter;stroke-opacity:1"
       d="m 1151.2534,747.75819 c -0.1716,-3.14118 -7.6275,-6.31968 -20.374,-5.82254 -12.734,0.49665 -29.9901,4.86065 -46.334,16.47155 -2.0812,1.47847 -4.077,3.02601 -5.9846,4.63346 0,0 0,0 0,0 -13.8075,11.74695 -21.8467,25.40174 -25.5218,36.13434 -3.674,10.72944 -2.9292,17.84935 -0.1673,18.9315 2.9575,1.15879 7.5751,-3.70914 14.1533,-10.90396 6.7941,-7.43094 15.176,-16.68017 26.6838,-25.6825 0,0 0,0 0,0 1.5377,-1.21671 3.1245,-2.41289 4.7638,-3.58827 12.8242,-9.195 25.7374,-14.90418 35.9847,-19.37189 10.0274,-4.37183 16.9819,-7.40122 16.7961,-10.80169 z"
       id="path1292"
       inkscape:path-effect="#path-effect1294"
       inkscape:original-d="m 1151.2534,747.75819 c -54.7763,2.99297 -86.0794,38.95001 -98.3817,70.34831"
       sodipodi:nodetypes="cc" />
    <path
       style="opacity:0.703;fill:url(#linearGradient2034);fill-opacity:1;stroke:none;stroke-width:0.264583px;stroke-linecap:butt;stroke-linejoin:miter;stroke-opacity:1;filter:url(#filter2664)"
       d="m 254,1016 c 4.74145,2.1499 -0.89216,25.3691 -12.20218,61.469 -11.31001,36.1 -28.12104,85.1092 -44.18251,139.6896 -2.29701,7.8057 -4.50916,15.4865 -6.64817,23.0796 -10.24984,36.3857 -17.42848,65.8658 -23.39329,94.6292 -6.02452,29.1516 -7.74806,41.2105 -11.27613,60.0543 -2.7251,14.555 -5.01711,23.0737 -8.13105,23.245 -3.03758,0.1671 -6.70624,-8.1025 -9.16726,-23.4018 -2.50594,-15.5786 -3.533,-37.1286 -1.55063,-64.0535 2.17832,-29.8265 7.71716,-63.2276 17.34808,-100.2627 2.05365,-7.8976 4.26611,-15.8811 6.64077,-23.942 16.63634,-56.4732 37.88685,-105.2757 55.72078,-139.2811 C 234.99878,1033.2078 249.25855,1013.8501 254,1016 Z"
       id="path2024"
       inkscape:path-effect="#path-effect2026"
       inkscape:original-d="m 254,1016 c -69.45667,153.1783 -111.58022,297.6821 -105.83333,402.1667"
       sodipodi:nodetypes="cc" />
  </g>
</svg>
