<?xml version="1.0" encoding="UTF-8" standalone="no"?>
<svg
   xmlns:dc="http://purl.org/dc/elements/1.1/"
   xmlns:cc="http://creativecommons.org/ns#"
   xmlns:rdf="http://www.w3.org/1999/02/22-rdf-syntax-ns#"
   xmlns:svg="http://www.w3.org/2000/svg"
   xmlns="http://www.w3.org/2000/svg"
   xmlns:sodipodi="http://sodipodi.sourceforge.net/DTD/sodipodi-0.dtd"
   xmlns:inkscape="http://www.inkscape.org/namespaces/inkscape"
   width="176.35976mm"
   height="181.57289mm"
   viewBox="0 0 176.35975 181.57289"
   version="1.1"
   id="svg3210"
   inkscape:version="1.0.1 (3bc2e813f5, 2020-09-07)"
   sodipodi:docname="Home.svg">
  <defs
     id="defs3204" />
  <sodipodi:namedview
     id="base"
     pagecolor="#ffffff"
     bordercolor="#666666"
     borderopacity="1.0"
     inkscape:pageopacity="0.0"
     inkscape:pageshadow="2"
     inkscape:zoom="0.68871538"
     inkscape:cx="117.76425"
     inkscape:cy="310.40414"
     inkscape:document-units="mm"
     inkscape:current-layer="g1016"
     inkscape:document-rotation="0"
     showgrid="true"
     inkscape:window-width="1920"
     inkscape:window-height="1017"
     inkscape:window-x="-8"
     inkscape:window-y="-8"
     inkscape:window-maximized="1" />
  <metadata
     id="metadata3207">
    <rdf:RDF>
      <cc:Work
         rdf:about="">
        <dc:format>image/svg+xml</dc:format>
        <dc:type
           rdf:resource="http://purl.org/dc/dcmitype/StillImage" />
        <dc:title></dc:title>
      </cc:Work>
    </rdf:RDF>
  </metadata>
  <g
     inkscape:label="Layer 1"
     inkscape:groupmode="layer"
     id="layer1"
     transform="translate(-55.945732,-23.737872)">
    <g
       id="g4090"
       transform="matrix(1.1761794,0,0,1.1761794,-25.473665,-9.4156981)">
      <g
         id="g1047">
        <g
           id="g1035">
          <g
             id="g1016"
             style="fill:#1a2836;fill-opacity:1">
            <path
               id="rect3775"
               style="fill:#000000;fill-opacity:1;stroke:#d40536;stroke-width:0;stroke-opacity:0.39759"
               d="m 117.86914,392.30664 c -27.266178,0 -49.218749,21.95257 -49.218749,49.21875 v 266.17969 c 0,27.26618 21.952571,49.21875 49.218749,49.21875 H 233.31641 V 580.14062 c 0,-19.35021 15.42806,-34.92968 34.59179,-34.92968 h 130.76758 c 19.16373,0 34.58984,15.57947 34.58984,34.92968 v 176.78321 h 115.44727 c 27.26618,0 49.21875,-21.95257 49.21875,-49.21875 V 441.52539 c 0,-27.26618 -21.95257,-49.21875 -49.21875,-49.21875 h -33.11328 v 53.76953 c 0,9.30864 -7.4941,16.80274 -16.80273,16.80274 H 414.7832 c -9.30863,0 -16.80273,-7.4941 -16.80273,-16.80274 V 392.30664 H 280.36328 v 53.76953 c 0,9.30864 -7.4941,16.80274 -16.80273,16.80274 h -84.01367 c -9.30859,0 -16.80274,-7.4941 -16.80274,-16.80274 v -53.76953 z"
               transform="matrix(0.22495151,0,0,0.22495151,69.223612,12.291524)" />
            <path
               id="rect3775-5"
               style="fill:#000000;fill-opacity:1;stroke:#d40536;stroke-width:0;stroke-opacity:0.39759"
               d="m 333.2793,70.664062 c -12.11419,0 -24.2292,4.641693 -33.51172,13.927735 L 13.923828,370.54492 c -18.5650505,18.5721 -18.5650505,48.47479 0,67.04688 L 233.95898,657.71094 V 580.875 c 0,-19.35021 15.42807,-34.92969 34.5918,-34.92969 h 130.76758 c 19.16373,0 34.5918,15.57948 34.5918,34.92969 v 75.52344 L 652.63281,437.5918 c 18.56506,-18.5721 18.56506,-48.47479 0,-67.04688 L 366.78906,84.591797 C 357.50654,75.305755 345.3935,70.664051 333.2793,70.664062 Z M 179.54688,345.25977 h 84.01367 c 9.30863,0 16.80273,7.49411 16.80273,16.80273 v 84.01367 c 0,9.30864 -7.4941,16.80274 -16.80273,16.80274 h -84.01367 c -9.30864,0 -16.80274,-7.4941 -16.80274,-16.80274 V 362.0625 c 0,-9.30862 7.4941,-16.80273 16.80274,-16.80273 z m 235.23632,0 h 84.01368 c 9.30863,0 16.80273,7.49409 16.80273,16.80273 v 84.01367 c 0,9.30864 -7.4941,16.80274 -16.80273,16.80274 H 414.7832 c -9.30863,0 -16.80273,-7.4941 -16.80273,-16.80274 V 362.0625 c 0,-9.30864 7.4941,-16.80273 16.80273,-16.80273 z"
               transform="matrix(0.22495151,0,0,0.22495151,69.223612,12.291524)" />
            <path
               id="rect3854"
               style="fill:#000000;fill-opacity:1;stroke:#d40536;stroke-width:0;stroke-opacity:0.39759"
               d="m 358,170 c -9.972,0 -18,8.028 -18,18 v 144 c 0,9.972 8.028,18 18,18 h 42.65039 c 1.81254,-5.80698 7.21535,-10 13.63477,-10 h 3.83398 C 419.31272,337.59014 420,334.88117 420,332 V 188 c 0,-9.972 -8.02798,-18 -18,-18 z"
               transform="scale(0.26458333)" />
            <rect
               style="fill:#000000;fill-opacity:1;stroke:#d40536;stroke-width:0;stroke-opacity:0.39759"
               id="rect3854-8"
               width="26.458302"
               height="10.583335"
               x="87.312447"
               y="42.333324"
               ry="1.0583333" />
            <rect
               style="fill:#000000;fill-opacity:1;stroke:#d40536;stroke-width:0;stroke-opacity:0.39759"
               id="rect3952"
               width="10.58333"
               height="5.2916713"
               x="153.45831"
               y="158.75"
               ry="1.3229178" />
            <rect
               style="fill:#000000;fill-opacity:1;stroke:#d40536;stroke-width:0;stroke-opacity:0.39759"
               id="rect4028"
               width="5.2916594"
               height="97.895836"
               x="100.54168"
               y="-195.79167"
               ry="3.2631946"
               transform="rotate(90)" />
            <rect
               style="fill:#000000;fill-opacity:1;stroke:#d40536;stroke-width:0;stroke-opacity:0.39759"
               id="rect4028-1"
               width="5.2916598"
               height="44.97916"
               x="-174.625"
               y="-127"
               ry="1.4993054"
               transform="scale(-1)" />
            <rect
               style="fill:#000000;fill-opacity:1;stroke:#d40536;stroke-width:0;stroke-opacity:0.39759"
               id="rect4028-1-1"
               width="5.2916603"
               height="44.979164"
               x="-121.70834"
               y="-124.35416"
               ry="1.4993054"
               transform="scale(-1)" />
          </g>
        </g>
      </g>
    </g>
  </g>
</svg>
