<?xml version="1.0" encoding="UTF-8" standalone="no"?>
<svg
   xmlns:dc="http://purl.org/dc/elements/1.1/"
   xmlns:cc="http://creativecommons.org/ns#"
   xmlns:rdf="http://www.w3.org/1999/02/22-rdf-syntax-ns#"
   xmlns:svg="http://www.w3.org/2000/svg"
   xmlns="http://www.w3.org/2000/svg"
   xmlns:xlink="http://www.w3.org/1999/xlink"
   xmlns:sodipodi="http://sodipodi.sourceforge.net/DTD/sodipodi-0.dtd"
   xmlns:inkscape="http://www.inkscape.org/namespaces/inkscape"
   width="135.75763mm"
   height="102.20918mm"
   viewBox="0 0 135.75763 102.20918"
   version="1.1"
   id="svg8"
   sodipodi:docname="Wi-Fi.svg"
   inkscape:version="1.0.1 (3bc2e813f5, 2020-09-07)">
  <defs
     id="defs2">
    <linearGradient
       inkscape:collect="always"
       id="linearGradient1572">
      <stop
         style="stop-color:#ffcc00;stop-opacity:1"
         offset="0"
         id="stop1568" />
      <stop
         style="stop-color:#ff0000;stop-opacity:1"
         offset="1"
         id="stop1570" />
    </linearGradient>
    <linearGradient
       inkscape:collect="always"
       xlink:href="#linearGradient1572"
       id="linearGradient1264"
       x1="31.750013"
       y1="34.395813"
       x2="158.75003"
       y2="153.45833"
       gradientUnits="userSpaceOnUse" />
  </defs>
  <sodipodi:namedview
     id="base"
     pagecolor="#ffffff"
     bordercolor="#666666"
     borderopacity="1.0"
     inkscape:pageopacity="0.0"
     inkscape:pageshadow="2"
     inkscape:zoom="0.48199285"
     inkscape:cx="360.08978"
     inkscape:cy="127.67959"
     inkscape:document-units="mm"
     inkscape:current-layer="layer1"
     inkscape:document-rotation="0"
     showgrid="true"
     inkscape:snap-midpoints="false"
     inkscape:window-width="1920"
     inkscape:window-height="1017"
     inkscape:window-x="-8"
     inkscape:window-y="-8"
     inkscape:window-maximized="1"
     fit-margin-top="0"
     fit-margin-left="0"
     fit-margin-right="0"
     fit-margin-bottom="0" />
  <metadata
     id="metadata5">
    <rdf:RDF>
      <cc:Work
         rdf:about="">
        <dc:format>image/svg+xml</dc:format>
        <dc:type
           rdf:resource="http://purl.org/dc/dcmitype/StillImage" />
        <dc:title></dc:title>
      </cc:Work>
    </rdf:RDF>
  </metadata>
  <g
     inkscape:label="Layer 1"
     inkscape:groupmode="layer"
     id="layer1"
     transform="translate(-79.62917,-53.98098)">
    <g
       id="g1056"
       transform="matrix(1.6923339,0,0,1.6923339,519.81024,106.64737)"
       style="display:inline;fill:#000000;fill-opacity:1">
      <g
         id="g1039"
         transform="matrix(1.1889026,0,0,1.1889026,431.42892,16.043317)"
         style="fill:#000000;fill-opacity:1">
        <path
           id="path891-5-6"
           style="display:inline;fill:#000000;fill-opacity:1;stroke:#d40536;stroke-width:0;stroke-opacity:0.39759"
           d="m -1539.7559,149.33789 a 334.31689,334.31689 0 0 0 -216.0058,79.15234 l 32.6094,32.60938 a 288.38209,288.38209 0 0 1 183.3925,-65.82813 288.38209,288.38209 0 0 1 182.9571,65.46875 l 32.6152,-32.61523 a 334.31689,334.31689 0 0 0 -215.5684,-78.78711 z"
           transform="matrix(0.15634228,0,0,0.15634228,-307.15584,-63.017925)" />
        <path
           id="path891-9"
           style="display:inline;fill:#000000;fill-opacity:1;stroke:#d40536;stroke-width:0;stroke-opacity:0.39759"
           d="m -1540,240 a 243.65614,243.65614 0 0 0 -151.3496,52.90234 l 33.6016,33.60157 a 196.51256,196.51256 0 0 1 117.539,-39.36329 196.51256,196.51256 0 0 1 0.4492,0 196.51256,196.51256 0 0 1 117.5332,39.02344 l 33.6172,-33.61718 A 243.65614,243.65614 0 0 0 -1539.7598,240 243.65614,243.65614 0 0 0 -1540,240 Z"
           transform="matrix(0.15634228,0,0,0.15634228,-307.15584,-63.017925)" />
        <path
           id="path893"
           style="fill:#000000;fill-opacity:1;stroke:#d40536;stroke-width:0;stroke-opacity:0.39759"
           d="m -1539.7598,327.0332 a 156.62179,156.62179 0 0 0 -89.4199,28.03907 l 33.2246,33.22265 a 110.68701,110.68701 0 0 1 56.1133,-15.32812 110.68701,110.68701 0 0 1 0.082,0 110.68701,110.68701 0 0 1 55.6953,15.0332 l 33.254,-33.25391 a 156.62179,156.62179 0 0 0 -88.9493,-27.71289 z"
           transform="matrix(0.15634228,0,0,0.15634228,-307.15584,-63.017925)" />
        <circle
           style="fill:#000000;fill-opacity:1;stroke:#d40536;stroke-width:0;stroke-opacity:0.39759"
           id="path897"
           cx="-547.94293"
           cy="6.6266241"
           clip-path="none"
           r="4.5025568" />
      </g>
    </g>
  </g>
</svg>
